<svg width="37" height="25" viewBox="0 0 37 25" fill="none" xmlns="http://www.w3.org/2000/svg">
<g clip-path="url(#clip0_183_1413)">
<path d="M18.2915 15.2408C13.3027 15.2408 8.17541 15.2408 3.18664 15.2408C2.77091 15.2408 1.93945 15.5083 1.93945 14.706C1.93945 14.0374 2.77091 14.1711 3.18664 14.1711C13.1642 14.1711 23.2803 14.1711 33.2578 14.1711C33.8121 14.1711 34.6436 14.0374 34.6436 14.706C34.6436 15.3745 33.8121 15.2408 33.3964 15.2408C28.4076 15.2408 23.4189 15.2408 18.2915 15.2408Z" fill="#266BF0"/>
<path d="M29.2393 8.28875C29.2393 6.81817 29.2393 5.34758 29.2393 3.87699C29.2393 2.94116 29.7936 2.94116 30.4864 2.94116C31.1793 2.94116 31.7336 2.94116 31.7336 3.87699C31.7336 6.81817 31.7336 9.75934 31.7336 12.7005C31.7336 13.5027 31.1793 13.6363 30.4864 13.6363C29.7936 13.6363 29.2393 13.5027 29.2393 12.7005C29.2393 11.2299 29.2393 9.75934 29.2393 8.28875Z" fill="#266BF0"/>
<path d="M5.12695 8.28875C5.12695 6.81817 5.12695 5.34758 5.12695 3.87699C5.12695 2.94116 5.68126 2.94116 6.37414 2.94116C7.06703 2.94116 7.62134 2.94116 7.62134 3.87699C7.62134 6.81817 7.62134 9.75934 7.62134 12.7005C7.62134 13.6363 7.06703 13.6363 6.37414 13.6363C5.68126 13.6363 5.12695 13.5027 5.12695 12.7005C5.12695 11.2299 5.12695 9.75934 5.12695 8.28875Z" fill="#266BF0"/>
<path d="M26.7451 8.28876C26.7451 6.81817 26.7451 5.34758 26.7451 3.87699C26.7451 3.34223 26.8837 2.94116 27.5766 2.94116C28.2695 2.94116 28.5466 3.20854 28.5466 3.87699C28.5466 6.81817 28.5466 9.75934 28.5466 12.7005C28.5466 13.369 28.2695 13.5027 27.5766 13.5027C26.8837 13.5027 26.7451 13.1016 26.7451 12.5668C26.7451 11.2299 26.7451 9.75934 26.7451 8.28876Z" fill="#266BF0"/>
<path d="M9.8387 8.42245C9.8387 9.89303 9.8387 11.3636 9.8387 12.8342C9.8387 13.369 9.70013 13.77 9.00724 13.77C8.31436 13.6364 8.17578 13.369 8.17578 12.7005C8.17578 9.75934 8.17578 6.81817 8.17578 3.87699C8.17578 3.34223 8.31436 2.94116 9.00724 2.94116C9.70013 2.94116 9.8387 3.34223 9.8387 3.87699C9.8387 5.34758 9.8387 6.95186 9.8387 8.42245Z" fill="#266BF0"/>
<path d="M21.0633 8.28875C21.0633 9.75934 21.0633 11.2299 21.0633 12.7005C21.0633 13.2353 20.9247 13.6363 20.2319 13.6363C19.539 13.6363 19.4004 13.2353 19.4004 12.7005C19.4004 9.75934 19.4004 6.81817 19.4004 3.87699C19.4004 3.34223 19.539 2.94116 20.0933 2.94116C20.7862 2.94116 20.9247 3.20854 20.9247 3.87699C21.0633 5.34758 21.0633 6.81817 21.0633 8.28875Z" fill="#266BF0"/>
<path d="M15.6591 8.28875C15.6591 6.81817 15.6591 5.34758 15.6591 3.87699C15.6591 3.34223 15.6591 2.94116 16.352 2.94116C17.0449 2.94116 17.1834 3.20854 17.1834 3.87699C17.1834 6.81817 17.1834 9.75934 17.1834 12.7005C17.1834 13.2353 17.0449 13.6363 16.352 13.6363C15.6591 13.6363 15.5205 13.2353 15.5205 12.7005C15.6591 11.2299 15.6591 9.75934 15.6591 8.28875Z" fill="#266BF0"/>
<path d="M3.18727 0C4.01873 0 4.71161 0 5.54307 0C5.9588 0 6.37453 0.13369 6.37453 0.668449C6.23595 1.20321 5.9588 1.3369 5.40449 1.3369C4.71161 1.3369 4.01873 1.3369 3.32584 1.3369C1.10861 1.3369 1.38577 1.06952 1.24719 3.34225C1.24719 4.01069 1.24719 4.67914 1.24719 5.34759C1.24719 5.74866 1.10861 6.14973 0.554307 6.14973C0 6.14973 0 5.74866 0 5.34759C0 3.87701 0 2.40642 0 0.935829C0 0.26738 0.277154 0 0.970037 0C1.66292 0 2.3558 0 3.18727 0Z" fill="#266BF0"/>
<path d="M36.9996 3.07483C36.9996 3.87697 36.9996 4.67911 36.9996 5.34756C36.9996 5.74862 36.861 6.14969 36.3067 6.016C35.7524 6.016 35.6139 5.74862 35.6139 5.21387C35.6139 4.14435 35.6139 3.07483 35.6139 2.00531C35.6139 1.33686 35.3367 1.06948 34.7824 1.20317C33.6738 1.20317 32.7037 1.20317 31.5951 1.20317C31.0408 1.20317 30.7637 1.06948 30.7637 0.534721C30.7637 -0.133728 31.1794 -0.133728 31.7337 -0.133728C33.2581 -0.133728 34.6438 -0.133728 36.1682 -0.133728C36.7225 -0.133728 37.1382 0.133652 37.1382 0.802101C36.861 1.60424 36.9996 2.40638 36.9996 3.07483Z" fill="#266BF0"/>
<path d="M-0.000460979 21.7914C-0.000460979 21.123 -0.000460979 20.5882 -0.000460979 19.9198C-0.000460979 19.5187 -0.277614 18.7166 0.692423 18.8502C1.52388 18.8502 1.24673 19.5187 1.38531 20.0534C1.38531 20.8556 1.38531 21.7914 1.38531 22.5936C1.38531 23.3957 1.66246 23.6631 2.49392 23.6631C3.46396 23.6631 4.434 23.6631 5.54261 23.6631C6.09692 23.6631 6.37407 23.7968 6.37407 24.3315C6.37407 24.8663 5.95834 25 5.54261 25C4.01827 25 2.49392 25 0.969576 25C0.276693 25 -0.000460979 24.7326 -0.000460979 24.0641C-0.000460979 23.262 -0.000460979 22.5936 -0.000460979 21.7914Z" fill="#266BF0"/>
<path d="M36.9996 21.9251C36.9996 22.7273 36.9996 23.5294 36.9996 24.1979C36.9996 24.7326 36.7225 25 36.3067 25C34.6438 25 33.1195 25 31.4566 25C31.0408 25 30.7637 24.7326 30.7637 24.3315C30.7637 23.7968 31.0408 23.6631 31.4566 23.6631C32.5652 23.6631 33.5352 23.6631 34.6438 23.6631C35.3367 23.6631 35.7524 23.3957 35.7524 22.7273C35.7524 21.7914 35.7524 20.8556 35.7524 20.0535C35.7524 19.6524 35.6139 18.9839 36.4453 18.9839C37.2768 18.9839 36.9996 19.6524 36.9996 20.0535C36.9996 20.5882 36.9996 21.2567 36.9996 21.9251Z" fill="#266BF0"/>
<path d="M7.48276 18.9839C7.48276 19.7861 7.48276 20.4545 7.48276 21.2567C7.48276 22.1925 6.78987 22.0588 6.23557 22.0588C5.68126 22.0588 5.12695 22.0588 5.12695 21.2567C5.12695 19.7861 5.12695 18.3155 5.12695 16.8449C5.12695 15.9091 5.68126 16.0428 6.37414 16.0428C7.06703 16.0428 7.62134 16.0428 7.48276 16.8449C7.48276 17.3797 7.48276 18.1818 7.48276 18.9839Z" fill="#266BF0"/>
<path d="M31.5951 18.984C31.5951 19.7861 31.5951 20.4545 31.5951 21.2567C31.5951 22.1925 30.9022 21.9251 30.3479 21.9251C29.7936 21.9251 29.2393 21.9251 29.2393 21.123C29.2393 19.6524 29.2393 18.0481 29.2393 16.5775C29.2393 15.6417 29.9321 15.7754 30.4864 15.7754C31.0408 15.7754 31.5951 15.7754 31.5951 16.5775C31.5951 17.3797 31.5951 18.1818 31.5951 18.984Z" fill="#266BF0"/>
<path d="M18.8459 8.42245C18.8459 9.89304 18.8459 11.3636 18.8459 12.8342C18.8459 13.2353 18.8459 13.6364 18.2916 13.6364C17.7373 13.6364 17.7373 13.2353 17.7373 12.8342C17.7373 9.89304 17.7373 6.81818 17.7373 3.877C17.7373 3.47593 17.7373 3.07486 18.2916 3.07486C18.8459 3.07486 18.8459 3.47593 18.8459 3.877C18.8459 5.34759 18.8459 6.95186 18.8459 8.42245Z" fill="#266BF0"/>
<path d="M13.4416 8.42245C13.4416 9.89304 13.4416 11.3636 13.4416 12.8342C13.4416 13.2353 13.4416 13.6364 12.8873 13.6364C12.333 13.6364 12.333 13.2353 12.333 12.8342C12.333 9.89304 12.333 6.81818 12.333 3.877C12.333 3.47593 12.333 3.07486 12.8873 3.07486C13.5802 3.07486 13.4416 3.60962 13.4416 3.877C13.4416 5.48128 13.4416 6.95186 13.4416 8.42245Z" fill="#266BF0"/>
<path d="M24.3889 8.42243C24.3889 9.89302 24.3889 11.3636 24.3889 12.8342C24.3889 13.2353 24.3889 13.77 23.8346 13.77C23.2803 13.77 23.2803 13.2353 23.2803 12.8342C23.2803 9.89302 23.2803 6.95185 23.2803 4.01067C23.2803 3.6096 23.2803 3.07484 23.8346 3.20853C24.3889 3.20853 24.3889 3.74329 24.3889 4.14436C24.3889 5.48126 24.3889 6.95185 24.3889 8.42243Z" fill="#266BF0"/>
<path d="M11.6399 8.42246C11.6399 9.89305 11.6399 11.3636 11.6399 12.8342C11.6399 13.2353 11.6399 13.7701 11.0856 13.7701C10.5313 13.7701 10.5312 13.2353 10.5312 12.8342C10.5312 9.89305 10.5312 7.08556 10.5312 4.14439C10.5312 4.0107 10.5312 4.0107 10.5312 3.87701C10.5312 3.47594 10.6698 3.20856 11.0856 3.20856C11.5013 3.20856 11.5013 3.60963 11.5013 3.87701C11.6399 5.34759 11.6399 6.81818 11.6399 8.42246Z" fill="#266BF0"/>
<path d="M26.1906 8.28876C26.1906 9.75935 26.1906 11.2299 26.1906 12.7005C26.1906 13.1016 26.1906 13.6364 25.6363 13.6364C25.082 13.6364 25.082 13.1016 25.082 12.7005C25.082 9.75935 25.082 6.95186 25.082 4.01069C25.082 3.877 25.082 3.877 25.082 3.74331C25.082 3.34224 25.2206 3.07486 25.6363 3.07486C26.0521 3.07486 26.0521 3.47593 26.0521 3.74331C26.1906 5.2139 26.1906 6.81817 26.1906 8.28876Z" fill="#266BF0"/>
<path d="M26.7451 18.8503C26.7451 18.1818 26.7451 17.3797 26.7451 16.7112C26.7451 16.1765 27.0223 15.9091 27.5766 15.9091C28.1309 15.9091 28.5466 16.0428 28.5466 16.7112C28.5466 18.1818 28.5466 19.7861 28.5466 21.2567C28.5466 21.7914 28.2695 22.0588 27.5766 22.0588C27.0223 22.0588 26.7451 21.7914 26.7451 21.2567C26.8837 20.3209 26.7451 19.5187 26.7451 18.8503Z" fill="#266BF0"/>
<path d="M9.8387 18.984C9.8387 19.7861 9.8387 20.4545 9.8387 21.2567C9.8387 21.7914 9.56155 22.0588 9.00724 22.0588C8.45293 22.0588 8.17578 21.9251 8.17578 21.2567C8.17578 19.6524 8.17578 18.1818 8.17578 16.5775C8.17578 16.0428 8.45293 15.9091 9.00724 15.9091C9.56155 15.9091 9.8387 16.0428 9.8387 16.5775C9.8387 17.3797 9.8387 18.1818 9.8387 18.984Z" fill="#266BF0"/>
<path d="M17.1835 18.9839C17.1835 19.7861 17.1835 20.4545 17.1835 21.2567C17.1835 21.7914 16.9064 22.0588 16.3521 22.0588C15.7978 22.0588 15.6592 21.7914 15.6592 21.2567C15.6592 19.7861 15.6592 18.3155 15.6592 16.8449C15.6592 16.3101 15.7978 16.0428 16.3521 16.0428C16.9064 16.0428 17.1835 16.3101 17.1835 16.8449C17.1835 17.3797 17.1835 18.1818 17.1835 18.9839Z" fill="#266BF0"/>
<path d="M19.5391 18.8503C19.5391 18.0481 19.5391 17.3797 19.5391 16.5775C19.5391 16.0428 19.8162 15.9091 20.3705 15.9091C20.7863 15.9091 21.202 16.0428 21.202 16.5775C21.202 18.1818 21.202 19.7861 21.202 21.3904C21.202 21.9251 20.7863 22.0588 20.3705 22.0588C19.8162 22.0588 19.5391 21.9251 19.5391 21.3904C19.5391 20.4545 19.5391 19.6524 19.5391 18.8503Z" fill="#266BF0"/>
<path d="M32.981 8.42246C32.981 9.89305 32.981 11.3636 32.981 12.8342C32.981 13.1016 32.981 13.5027 32.7038 13.5027C32.2881 13.5027 32.2881 13.1016 32.2881 12.8342C32.2881 9.89305 32.2881 6.81818 32.2881 3.87701C32.2881 3.60963 32.2881 3.20856 32.5652 3.20856C32.981 3.20856 32.981 3.60963 32.981 3.87701C32.981 5.34759 32.981 6.81818 32.981 8.42246Z" fill="#266BF0"/>
<path d="M3.74092 8.28876C3.74092 6.81817 3.74092 5.34759 3.74092 3.877C3.74092 3.60962 3.60235 3.07486 4.01808 3.07486C4.57238 3.07486 4.43381 3.60962 4.43381 3.877C4.43381 6.81818 4.43381 9.75935 4.43381 12.7005C4.43381 12.9679 4.43381 13.369 4.15665 13.369C3.60235 13.369 3.74092 12.9679 3.74092 12.7005C3.74092 11.3636 3.74092 9.75935 3.74092 8.28876Z" fill="#266BF0"/>
<path d="M18.8459 18.8502C18.8459 19.6524 18.8459 20.3208 18.8459 21.123C18.8459 21.524 18.8459 21.9251 18.2916 21.9251C17.7373 21.9251 17.7373 21.524 17.7373 21.2567C17.7373 19.7861 17.7373 18.1818 17.7373 16.7112C17.7373 16.3101 17.8759 16.0428 18.2916 16.0428C18.8459 16.0428 18.8459 16.4438 18.8459 16.7112C18.8459 17.3797 18.8459 18.1818 18.8459 18.8502Z" fill="#266BF0"/>
<path d="M24.3889 18.8503C24.3889 19.6524 24.3889 20.3209 24.3889 21.123C24.3889 21.5241 24.2503 21.7914 23.8346 21.7914C23.2803 21.7914 23.2803 21.3904 23.2803 21.123C23.2803 19.6524 23.2803 18.0481 23.2803 16.5775C23.2803 16.1765 23.4189 15.9091 23.8346 15.9091C24.3889 15.9091 24.3889 16.3102 24.3889 16.5775C24.3889 17.3797 24.3889 18.1818 24.3889 18.8503Z" fill="#266BF0"/>
<path d="M11.6399 18.8503C11.6399 19.6524 11.6399 20.4545 11.6399 21.123C11.6399 21.3904 11.6399 21.7914 11.0856 21.7914C10.5313 21.7914 10.5312 21.5241 10.5312 21.123C10.5312 19.5187 10.5312 18.0481 10.5312 16.4438C10.5312 16.0428 10.6698 15.7754 11.0856 15.7754C11.5013 15.7754 11.5013 16.1765 11.5013 16.4438C11.6399 17.3797 11.6399 18.1818 11.6399 18.8503Z" fill="#266BF0"/>
<path d="M13.4416 18.8503C13.4416 19.6524 13.4416 20.3209 13.4416 21.123C13.4416 21.5241 13.4416 21.7914 12.8873 21.9251C12.333 21.9251 12.333 21.5241 12.333 21.123C12.333 19.6524 12.333 18.0481 12.333 16.5775C12.333 16.1765 12.4716 15.9091 12.8873 15.9091C13.4416 15.9091 13.4416 16.3102 13.4416 16.5775C13.4416 17.3797 13.4416 18.1818 13.4416 18.8503Z" fill="#266BF0"/>
<path d="M26.1907 18.8503C26.1907 19.6524 26.1907 20.3208 26.1907 21.123C26.1907 21.3904 26.1907 21.7914 25.775 21.7914C25.2207 21.7914 25.2207 21.5241 25.2207 21.123C25.2207 19.5187 25.2207 18.0481 25.2207 16.4438C25.2207 16.1765 25.3593 15.7754 25.775 15.7754C26.3293 15.7754 26.3293 16.1765 26.3293 16.4438C26.1907 17.3797 26.1907 18.1818 26.1907 18.8503Z" fill="#266BF0"/>
<path d="M14.8275 8.28877C14.8275 9.75936 14.8275 11.3636 14.8275 12.8342C14.8275 13.1016 14.966 13.369 14.5503 13.5027C14.1346 13.5027 14.2731 13.1016 14.2731 12.9679C14.2731 9.89305 14.2731 6.81818 14.2731 3.87701C14.2731 3.60963 14.2731 3.20856 14.5503 3.20856C14.966 3.20856 14.8275 3.60963 14.8275 3.87701C14.8275 5.34759 14.8275 6.81818 14.8275 8.28877Z" fill="#266BF0"/>
<path d="M22.4487 8.28876C22.4487 9.75935 22.4487 11.3636 22.4487 12.8342C22.4487 13.1016 22.5873 13.5027 22.1716 13.5027C21.7559 13.5027 21.7559 13.1016 21.7559 12.8342C21.7559 9.75935 21.7559 6.81817 21.7559 3.74331C21.7559 3.47593 21.7559 3.07486 22.033 3.07486C22.4487 3.07486 22.3102 3.47593 22.3102 3.74331C22.4487 5.34759 22.4487 6.81817 22.4487 8.28876Z" fill="#266BF0"/>
<path d="M32.981 18.8502C32.981 19.6524 32.981 20.4545 32.981 21.2567C32.981 21.524 32.981 21.7914 32.7038 21.7914C32.2881 21.7914 32.2881 21.524 32.2881 21.2567C32.2881 19.6524 32.2881 18.1818 32.2881 16.5775C32.2881 16.3101 32.2881 16.0428 32.5652 16.0428C32.981 16.0428 32.981 16.4438 32.981 16.7112C32.981 17.3797 32.981 18.0481 32.981 18.8502Z" fill="#266BF0"/>
<path d="M4.43409 18.984C4.43409 19.7861 4.43409 20.5882 4.43409 21.2567C4.43409 21.5241 4.43409 21.7914 4.01836 21.7914C3.74121 21.7914 3.74121 21.5241 3.74121 21.2567C3.74121 19.6524 3.74121 18.0481 3.74121 16.4438C3.74121 16.1765 3.74121 15.9091 4.01836 15.9091C4.29552 15.9091 4.43409 16.1765 4.43409 16.4438C4.43409 17.246 4.43409 18.0481 4.43409 18.984Z" fill="#266BF0"/>
<path d="M14.8268 18.9839C14.8268 19.7861 14.8268 20.5882 14.8268 21.2567C14.8268 21.524 14.8268 21.7914 14.5496 21.7914C14.2725 21.7914 14.2725 21.524 14.2725 21.2567C14.2725 19.6524 14.2725 18.1818 14.2725 16.5775C14.2725 16.3101 14.2725 16.0428 14.5496 16.0428C14.9653 16.0428 14.8268 16.4438 14.8268 16.5775C14.8268 17.3797 14.8268 18.1818 14.8268 18.9839Z" fill="#266BF0"/>
<path d="M22.4488 18.8502C22.4488 19.6524 22.4488 20.4545 22.4488 21.3903C22.4488 21.524 22.4488 21.7914 22.1717 21.7914C21.8945 21.7914 21.8945 21.524 21.8945 21.3903C21.8945 19.7861 21.8945 18.1818 21.8945 16.5775C21.8945 16.3101 21.8945 16.0428 22.3103 16.0428C22.5874 16.0428 22.5874 16.3101 22.5874 16.5775C22.4488 17.246 22.4488 18.0481 22.4488 18.8502Z" fill="#266BF0"/>
</g>
<defs>
<clipPath id="clip0_183_1413">
<rect width="37" height="25" fill="white"/>
</clipPath>
</defs>
</svg>
