<svg width="30" height="27" viewBox="0 0 30 27" fill="none" xmlns="http://www.w3.org/2000/svg">
<path d="M4.26233 9.0654C4.50823 8.3084 4.91807 7.80372 5.65577 7.6355C5.73774 7.6355 5.90167 7.6355 5.98364 7.6355C11.9672 7.6355 17.9509 7.6355 24.0164 7.6355C25 7.6355 25.7377 8.39251 25.7377 9.40185C25.7377 13.5233 25.7377 17.5607 25.7377 21.6822C25.7377 22.6916 25 23.4486 24.0164 23.4486C18.0328 23.4486 12.0492 23.4486 5.98364 23.4486C5.16397 23.4486 4.5902 22.9439 4.3443 22.1869C4.3443 22.1028 4.3443 22.1028 4.26233 22.0187C4.26233 17.729 4.26233 13.4392 4.26233 9.0654ZM5.90167 8.56073C5.90167 8.64484 5.98364 8.64484 5.98364 8.64484C6.55741 9.23363 7.13118 9.7383 7.78692 10.3271C10.164 12.5981 12.541 14.8691 14.9181 17.1402C15 17.2243 15.082 17.3084 15.2459 17.1402C16.4754 15.9626 17.705 14.785 18.9345 13.6075C20.6558 12.0093 22.3771 10.3271 24.0164 8.72896C24.0984 8.64484 24.1804 8.64484 24.1804 8.47662C18.0328 8.56073 11.9672 8.56073 5.90167 8.56073ZM24.1804 22.6075C24.1804 22.5233 24.0984 22.4392 24.0164 22.3551C21.8853 20.3364 19.7541 18.3177 17.623 16.299C17.4591 16.1308 17.3771 16.2149 17.2951 16.299C16.6394 16.8878 16.0656 17.4766 15.4099 18.0654C15.082 18.4019 14.9181 18.4019 14.5902 18.0654C13.9345 17.4766 13.2787 16.8878 12.705 16.2149C12.623 16.1308 12.541 16.1308 12.4591 16.2149C11.8853 16.7196 11.3935 17.3084 10.8197 17.8131C9.26233 19.3271 7.62299 20.8411 6.06561 22.3551C5.98364 22.4392 5.90167 22.4392 5.90167 22.6075C11.9672 22.6075 18.0328 22.6075 24.1804 22.6075ZM5.16397 15.542C5.16397 17.2243 5.16397 18.9906 5.16397 20.6729C5.16397 21.0934 5.16397 21.4299 5.16397 21.8505C5.16397 21.9346 5.16397 22.0187 5.24594 22.0187C5.3279 22.0187 5.3279 22.0187 5.40987 21.9346C5.81971 21.514 6.22954 21.1776 6.63938 20.757C8.36069 19.0747 10.164 17.3925 11.9672 15.7103C12.0492 15.6262 12.0492 15.542 11.9672 15.4579C11.0656 14.6168 10.2459 13.7757 9.3443 12.9346C8.11479 11.757 6.88528 10.5794 5.5738 9.40185C5.3279 9.31774 5.3279 9.14952 5.16397 9.14952C5.082 9.23363 5.16397 9.40185 5.16397 9.48597C5.16397 11.5047 5.16397 13.5233 5.16397 15.542ZM24.9181 15.542C24.9181 13.6916 24.9181 11.757 24.9181 9.90653C24.9181 9.7383 24.9181 9.57008 24.9181 9.40185C24.9181 9.31774 24.9181 9.23363 24.8361 9.23363C24.7541 9.23363 24.7541 9.31774 24.6722 9.31774C24.1804 9.7383 23.6886 10.243 23.1968 10.7476C21.5574 12.3458 19.9181 13.9439 18.1968 15.4579C18.0328 15.542 18.1148 15.6262 18.1968 15.7944C20.3279 17.8131 22.3771 19.8318 24.5082 21.8505C24.5902 21.9346 24.6722 22.1028 24.7541 22.0187C24.8361 21.9346 24.8361 21.7663 24.8361 21.6822C24.9181 19.5794 24.9181 17.5607 24.9181 15.542Z" fill="#266BF0"/>
</svg>
