<?xml version="1.0" encoding="utf-8"?>
<svg viewBox="290.926 157.141 179.552 185.717" xmlns="http://www.w3.org/2000/svg">
  <g transform="matrix(0.9999999999999999, 0, 0, 0.9999999999999999, 0, -7.105427357601002e-15)">
    <path d="M 298.113 191.213 L 293.511 191.27 L 292.75 195.81 C 291.552 202.965 290.926 210.306 290.926 217.797 C 290.926 275.242 327.649 324.096 378.866 342.209 L 380.702 342.858 L 382.537 342.209 C 433.755 324.107 470.478 275.253 470.478 217.808 C 470.478 210.333 469.864 202.968 468.653 195.811 L 467.886 191.281 L 463.292 191.224 C 434.128 190.858 406.088 179.92 384.38 160.44 L 380.703 157.141 L 377.025 160.44 C 355.316 179.916 327.276 190.85 298.113 191.213 Z" fill="#266BF0" stroke="#2D2D2D" stroke-width="11.0136"/>
    <path d="M 425.029 202.778 L 367.2 266.374 L 350.41 253.658 L 341.083 253.658 L 367.2 296.052 L 434.357 202.778 L 425.029 202.778 Z" fill="#EEEEEE"/>
  </g>
</svg>