<svg width="44" height="34" viewBox="0 0 44 34" fill="none" xmlns="http://www.w3.org/2000/svg">
<path d="M24.1553 19.8783C24.1553 21.1493 24.1553 22.4203 24.1553 23.7973C24.1553 23.9032 24.1553 24.0091 24.1553 24.115C24.1553 24.4328 23.9161 24.5387 23.5574 24.5387C22.242 24.5387 20.9266 24.5387 19.7308 24.5387C19.3721 24.5387 19.2525 24.4328 19.1329 24.115C19.1329 23.9032 19.1329 23.7973 19.1329 23.5854C19.1329 21.0434 19.1329 18.3954 19.1329 15.8533C19.1329 15.4297 19.1329 15.4297 18.6546 15.4297C17.8175 15.4297 17.1 15.4297 16.263 15.4297C15.6651 15.4297 15.5455 15.3238 15.5455 14.7942C15.5455 13.735 15.5455 12.7817 15.5455 11.7225C15.5455 11.2988 15.6651 11.087 16.263 11.087C17.1 11.087 17.9371 11.087 18.7742 11.087C19.0133 11.087 19.1329 10.9811 19.1329 10.7692C19.1329 9.92188 19.1329 9.18045 19.1329 8.3331C19.2525 6.00288 20.807 3.8845 24.0357 3.56674C25.2315 3.46082 26.5469 3.46082 27.7427 3.56674C28.2211 3.56674 28.3406 3.77858 28.3406 4.09634C28.3406 5.04961 28.3406 6.1088 28.3406 7.06207C28.3406 7.48575 28.2211 7.59167 27.7427 7.59167C27.0253 7.59167 26.4273 7.59167 25.7099 7.59167C25.5903 7.59167 25.4707 7.59167 25.3511 7.59167C24.3945 7.59167 24.1553 7.90942 24.1553 8.75678C24.1553 9.39229 24.1553 10.1337 24.1553 10.7692C24.1553 10.9811 24.2749 11.087 24.5141 10.9811C25.4707 10.9811 26.5469 10.9811 27.5036 10.9811C28.1015 10.9811 28.2211 11.087 28.2211 11.6166C28.2211 12.6758 28.2211 13.735 28.2211 14.6882C28.2211 15.1119 28.1015 15.2178 27.6232 15.2178C26.5469 15.3238 25.5903 15.2178 24.5141 15.2178C24.1553 15.2178 24.1553 15.2178 24.1553 15.5356C24.1553 17.1244 24.1553 18.5013 24.1553 19.8783Z" fill="#266BF0"/>
</svg>
