<svg width="35" height="27" viewBox="0 0 35 27" fill="none" xmlns="http://www.w3.org/2000/svg">
<path d="M5.43567 19.2615C5.43567 15.3924 5.43567 11.6073 5.43567 7.73816C5.43567 7.65405 5.52765 7.48582 5.52765 7.40171C5.8956 5.46713 7.09141 4.03722 9.0231 3.02788C9.75899 2.69143 10.4949 2.5232 11.2308 2.35498C15.4621 2.35498 19.6014 2.35498 23.8328 2.35498C24.2927 2.5232 24.5686 2.5232 24.9366 2.60732C27.6961 3.28021 29.7198 5.63535 29.7198 8.24283C29.7198 11.7755 29.7198 15.2241 29.7198 18.7569C29.7198 19.3456 29.6278 19.9344 29.3519 20.4391C28.432 22.8783 25.8564 24.5606 23.0049 24.5606C19.3255 24.5606 15.738 24.5606 12.0586 24.5606C11.7827 24.5606 11.4147 24.5606 11.1388 24.4765C8.83913 24.14 7.09141 23.0466 6.07957 21.112C5.71163 20.6073 5.61964 19.9344 5.43567 19.2615ZM28.34 13.1213C28.34 11.6914 28.432 9.92508 28.34 8.07461C28.2481 6.30825 27.2362 5.04657 25.5805 4.20545C24.7526 3.78489 23.9247 3.70078 23.0969 3.70078C19.9694 3.70078 16.9339 3.70078 13.8063 3.70078C13.1624 3.70078 12.5185 3.70078 11.8747 3.70078C9.94296 3.869 8.56317 4.71012 7.64332 6.22414C7.18339 6.98115 7.09141 7.73816 7.09141 8.57928C7.09141 11.4391 7.09141 14.2148 7.09141 17.0746C7.09141 17.6634 7.09141 18.2522 7.09141 18.841C7.27538 20.6073 8.19523 21.869 9.85097 22.7101C10.6788 23.1307 11.5067 23.2148 12.3346 23.2148C15.6461 23.2148 18.9575 23.2148 22.269 23.2148C22.7289 23.2148 23.0969 23.2148 23.5568 23.2148C25.4885 23.0466 26.8683 22.2055 27.7881 20.6073C28.1561 19.9344 28.34 19.0933 28.34 18.3363C28.34 16.8223 28.34 15.14 28.34 13.1213Z" fill="#266BF0"/>
<path d="M24.2927 13.542C24.2927 16.9065 21.3491 19.5981 17.6697 19.5981C13.9903 19.5981 11.0468 16.9065 11.0468 13.4579C11.0468 10.0934 13.9903 7.40186 17.7617 7.40186C21.2571 7.40186 24.2927 10.1776 24.2927 13.542ZM17.8537 18.2523C20.5213 18.1682 23.0968 15.9813 22.7289 13.0374C22.4529 10.6822 20.1533 8.57943 17.0258 8.83176C14.4502 9.0841 12.1506 11.1869 12.4265 14.0467C12.7025 16.486 15.0941 18.4205 17.8537 18.2523Z" fill="#266BF0"/>
<path d="M22.453 7.06518C22.453 6.05584 23.3729 5.29883 24.4767 5.29883C25.5805 5.29883 26.4084 6.13995 26.4084 7.1493C26.4084 8.15864 25.4885 8.99976 24.3847 8.91565C23.2809 8.91565 22.453 8.07453 22.453 7.06518Z" fill="#266BF0"/>
</svg>
