<svg width="129" height="80" viewBox="0 0 129 80" fill="none" xmlns="http://www.w3.org/2000/svg">
<path d="M0 63.1444H3.65219C3.72882 64.8006 5.5166 65.4991 7.25342 65.4991C8.83696 65.4991 10.6759 65.1111 10.6759 63.2221C10.6759 61.1521 8.47924 60.971 6.7681 60.8416C3.52459 60.557 0.255392 59.4444 0.255392 55.6925C0.255392 51.6819 3.49891 49.9999 7.04898 49.9999C10.3948 49.9999 13.8682 51.4231 13.8682 55.4856H10.2927C10.0885 54.0106 8.58156 53.3896 7.04898 53.3896C5.5166 53.3896 4.0097 54.2177 4.0097 55.6149C4.0097 57.2191 5.56776 57.5813 7.43217 57.7885C11.2122 58.1249 14.4557 58.9787 14.4557 63.2221C14.4557 67.4914 10.8035 68.8112 7.27889 68.8888C3.70335 68.8888 0 67.1034 0 63.1444ZM21.5988 52.1736V56.0547H25.6084V58.7716H21.5988V63.6103C21.5988 66.1977 23.7186 66.3272 25.7617 65.5768L26.0938 68.3195C21.8541 69.5098 18.0996 68.8112 18.0996 63.6879V58.7716L15.7754 58.5387V56.0547H18.355L18.7382 52.1736H21.5988ZM36.2893 66.5859C35.5488 68.1384 33.6077 68.7335 32.0242 68.7335C29.7254 68.7335 27.6313 67.2327 27.5546 64.8264C27.4268 61.7731 29.5978 60.3241 32.3305 60.3241C33.4288 60.3241 34.6803 60.5312 35.5997 61.1263V60.2724C35.5997 58.7458 33.7608 58.4871 32.535 58.4871C31.2323 58.4871 30.032 58.6423 28.9849 59.2375L28.5251 56.6498C29.8277 56.0289 31.4877 55.7183 33.1479 55.7183C36.315 55.7183 39.0222 56.7793 39.0222 60.3759V64.8782C39.0222 65.939 38.9967 66.5601 40.1714 66.4825L40.1971 68.5006C38.3326 68.9146 36.2893 68.8112 36.2893 66.5859ZM35.5231 64.0243V63.3774C34.8081 62.8857 33.8631 62.653 32.9691 62.653C31.8454 62.7306 30.926 63.3774 31.0535 64.5934C31.1302 65.4991 31.9219 65.939 32.7392 65.939C33.9141 65.939 35.3955 65.3439 35.5231 64.0243ZM46.396 57.7624C46.9068 56.3395 48.3371 55.6407 49.844 55.6407C50.7889 55.6149 51.7593 55.8996 52.4746 56.4429L51.6827 59.4702C50.9422 58.9787 50.1758 58.7716 49.3841 58.7976C47.8263 58.7976 46.4981 59.8326 46.4981 61.7473V68.5006H42.999V59.7031C42.999 58.6682 42.8969 57.9954 41.7732 58.1765V55.9512C43.561 55.5372 46.1916 55.5372 46.396 57.7624Z" fill="#EEEEEE"/>
<path d="M53.5679 59.1706C53.5679 52.8995 57.9981 49.4543 62.683 49.535C66.273 49.535 70.092 51.5806 70.9069 56.2368H67.215C66.4258 54.1105 64.8216 53.1686 62.683 53.1686C59.5257 53.1686 57.4125 55.5909 57.4125 59.1706C57.4125 62.4006 59.4749 65.092 62.6576 65.092C64.8726 65.092 66.6804 63.9886 67.2914 61.7007H70.9579C70.1941 66.68 66.4002 68.7525 62.683 68.7525C57.9981 68.7525 53.5679 65.4151 53.5679 59.1706ZM85.5913 68.5641H82.0012V61.0548C82.0776 59.2245 81.0592 58.2824 79.7352 58.2824C78.3094 58.2555 77.1128 59.3321 77.1128 61.1356V68.5641H73.5227V48.916H77.1128V56.9906C77.902 55.8332 79.226 55.2949 80.7536 55.2949C84.2673 55.2949 85.5913 57.7172 85.5913 61.0548V68.5641ZM94.4429 55.2679C98.924 55.2679 100.834 58.4439 99.8916 62.8581H91.5659C91.6931 64.8768 93.1189 65.6574 94.8247 65.7918C95.334 65.8187 95.9196 65.8458 96.4544 65.765C97.5492 65.6303 98.644 65.3343 99.3824 64.9844L99.7898 67.7298C98.3384 68.4565 96.658 68.8871 95.0286 68.8871C90.9039 68.9679 88.0013 66.3033 88.0013 61.916C88.0777 57.3942 91.1839 55.2679 94.4429 55.2679ZM94.4429 58.1479C93.0935 58.1479 91.8713 58.9285 91.5913 60.4358H96.989C97.0654 58.7401 95.767 58.1479 94.4429 58.1479ZM114.603 60.2742H111.217C110.784 59.063 109.74 58.471 108.645 58.4978C107.118 58.5247 105.539 59.7089 105.539 62.0238C105.539 64.3653 107.118 65.6035 108.645 65.6035C109.765 65.6035 110.835 64.9576 111.268 63.5848H114.654C114.145 67.0568 111.369 68.8064 108.543 68.8332C105.31 68.8603 102 66.5993 102 62.0238C102 57.475 105.335 55.1871 108.569 55.1871C111.344 55.1871 114.043 56.883 114.603 60.2742ZM120.649 60.355H121.514C124.341 60.355 125.054 58.2287 125.054 55.5641H128.414C128.491 58.3095 127.905 60.6242 125.486 61.9699L129 68.1605V68.5372H125.41L122.482 63.1541C122.176 63.2619 121.845 63.3156 121.464 63.3156H120.649V68.5372H117.11V48.8889H120.649V60.355Z" fill="#2D2D2D"/>
<path d="M8.17833 72.44L10.3156 78.5729L12.4198 72.44H12.924L10.3156 80L7.65234 72.44H8.17833ZM16.4404 72.44V79.7058H15.9691V72.44H16.4404ZM23.9989 73.3768L23.6483 73.6602C23.2317 73.0284 22.8372 72.7887 22.2124 72.7887C21.4342 72.7887 20.8425 73.3878 20.8425 74.1611C20.8425 74.7494 21.1384 75.0654 22.1358 75.5445C23.0783 75.9912 23.2646 76.0894 23.5934 76.2962C24.0974 76.634 24.3605 77.1023 24.3605 77.6906C24.3605 78.8671 23.3412 79.8257 22.081 79.8257C21.0725 79.8257 20.3382 79.3027 19.9217 78.2679L20.3274 78.0719C20.5028 78.4312 20.5903 78.5839 20.7328 78.7691C21.0396 79.1502 21.5548 79.379 22.081 79.379C23.0563 79.379 23.8674 78.6166 23.8674 77.6906C23.8674 77.2221 23.6152 76.841 23.1549 76.5687C22.9138 76.4378 22.8809 76.416 21.7959 75.8824C20.678 75.3378 20.3493 74.9346 20.3493 74.1503C20.3493 73.1045 21.1384 72.3421 22.2233 72.3421C22.9795 72.3421 23.6152 72.7123 23.9989 73.3768ZM29.2374 72.8759V79.7058H28.7663V72.8759H26.8921V72.44H31.1445V72.8759H29.2374ZM37.1181 72.3421C39.1897 72.3421 40.9102 74.0413 40.9102 76.0783C40.9102 78.1373 39.1897 79.8257 37.0962 79.8257C35.0357 79.8257 33.337 78.1046 33.337 76.0239C33.337 74.0523 35.0905 72.3421 37.1181 72.3421ZM37.1181 72.7887C35.3426 72.7887 33.8301 74.2809 33.8301 76.0349C33.8301 77.0151 34.1918 77.8539 34.8934 78.4968C35.5071 79.0522 36.3181 79.379 37.0962 79.379C38.9266 79.379 40.417 77.8976 40.417 76.0783C40.417 74.2809 38.9266 72.7887 37.1181 72.7887ZM45.6324 76.2745L48.0217 79.7058H47.4408L45.0953 76.2745H44.8762V79.7058H44.4048V72.44H45.435C46.1804 72.44 46.5969 72.538 46.9804 72.8105C47.4517 73.1372 47.7148 73.6928 47.7148 74.3681C47.7148 75.1197 47.3749 75.7299 46.7941 76.0349C46.5092 76.1763 46.2024 76.2419 45.6324 76.2745ZM44.8762 75.8387H45.5776C46.6298 75.8387 47.2326 75.2941 47.2326 74.3573C47.2326 73.7908 46.9804 73.3115 46.5858 73.0937C46.3118 72.9412 45.9502 72.8759 45.479 72.8759H44.8762V75.8387ZM51.9101 72.44V79.7058H51.4389V72.44H51.9101ZM59.5782 77.3203H56.4655L55.49 79.7058H54.964L58.0326 72.2222L61.0796 79.7058H60.5425L59.5782 77.3203ZM59.4028 76.8845L58.0326 73.4423L56.6407 76.8845H59.4028ZM68.4665 72.44L70.6035 78.5729L72.7079 72.44H73.2119L70.6035 80L67.9403 72.44H68.4665ZM79.7533 72.8759H76.7284V75.5119H79.6876V75.9477H76.7284V79.27H79.7533V79.7058H76.257V72.44H79.7533V72.8759ZM83.7195 72.44V79.7058H83.2484V72.44H83.7195ZM93.4483 73.2788V73.9325C93.1084 73.5512 92.9332 73.4095 92.5932 73.2243C92.0892 72.9412 91.5084 72.7887 90.9822 72.7887C89.2066 72.7887 87.6942 74.3246 87.6942 76.111C87.6942 77.0696 88.0998 77.9192 88.8341 78.5402C89.4697 79.074 90.2479 79.379 90.9822 79.379C91.563 79.379 92.2646 79.172 92.8126 78.8236C93.0426 78.6927 93.1743 78.5729 93.4483 78.2898V78.9216C92.6481 79.5534 91.9029 79.8257 91.015 79.8257C88.9437 79.8257 87.201 78.1154 87.201 76.0894C87.201 74.0523 88.9326 72.3421 90.9933 72.3421C91.9247 72.3421 92.6809 72.6362 93.4483 73.2788ZM97.413 72.44V76.9825C97.413 77.8758 97.4679 78.2244 97.6761 78.5402C97.9939 79.0304 98.7173 79.379 99.4297 79.379C100.131 79.379 100.855 79.0304 101.172 78.5402C101.381 78.2244 101.435 77.8758 101.435 76.9825V72.44H101.907V77.1133C101.907 78.0719 101.83 78.4204 101.523 78.8344C101.085 79.4444 100.285 79.8257 99.4297 79.8257C98.5638 79.8257 97.7638 79.4444 97.3253 78.8344C97.0185 78.4204 96.9417 78.0719 96.9417 77.1133V72.44H97.413ZM106.267 72.44V79.27H108.119V79.7058H105.795V72.44H106.267ZM115.369 77.3203H112.256L111.281 79.7058H110.755L113.823 72.2222L116.87 79.7058H116.333L115.369 77.3203ZM115.193 76.8845L113.823 73.4423L112.432 76.8845H115.193ZM121.144 76.2745L123.534 79.7058H122.953L120.607 76.2745H120.388V79.7058H119.917V72.44H120.947C121.692 72.44 122.109 72.538 122.492 72.8105C122.964 73.1372 123.227 73.6928 123.227 74.3681C123.227 75.1197 122.887 75.7299 122.306 76.0349C122.021 76.1763 121.714 76.2419 121.144 76.2745ZM120.388 75.8387H121.09C122.142 75.8387 122.745 75.2941 122.745 74.3573C122.745 73.7908 122.492 73.3115 122.098 73.0937C121.824 72.9412 121.462 72.8759 120.991 72.8759H120.388V75.8387Z" fill="#EEEEEE"/>
<path d="M47.4028 8.24571L46.4502 8.25765L46.2926 9.20832C46.0446 10.7066 45.915 12.2438 45.915 13.8124C45.915 25.8413 53.5172 36.0712 64.1197 39.8641L64.4998 40L64.8797 39.8641C75.4824 36.0735 83.0845 25.8436 83.0845 13.8147C83.0845 12.2494 82.9574 10.7072 82.7067 9.20853L82.548 8.25995L81.5969 8.24802C75.5596 8.17138 69.755 5.88097 65.2612 1.80189L64.5 1.11108L63.7386 1.80189C59.2446 5.88014 53.4399 8.1697 47.4028 8.24571Z" fill="#266BF0"/>
<path fill-rule="evenodd" clip-rule="evenodd" d="M64.5005 0L66.0193 1.36337C70.2974 5.20448 75.8235 7.36136 81.571 7.43356C81.5709 7.43356 81.571 7.43357 81.571 7.43356L83.4685 7.45712L83.7853 9.32925C84.0463 10.8722 84.1782 12.4578 84.1782 14.0645C84.1782 26.432 76.276 36.9467 65.2584 40.8429C65.2583 40.8429 65.2582 40.8429 65.2582 40.8429L64.5003 41.1111L63.742 40.8429C52.7248 36.9445 44.8223 26.4298 44.8223 14.0623C44.8223 12.4508 44.9569 10.8711 45.2146 9.33109L45.5289 7.45485L47.4297 7.43129C47.4296 7.43129 47.4297 7.43129 47.4297 7.43129C53.177 7.3597 58.7031 5.20367 62.9814 1.36334L64.5005 0ZM64.5003 3.05733C59.8119 7.26581 53.7562 9.62847 47.458 9.70691C47.458 9.70697 47.4579 9.70704 47.4579 9.7071C47.2208 11.124 47.0968 12.578 47.0968 14.0623C47.0968 25.4349 54.3626 35.11 64.5001 38.6972C74.6377 35.1123 81.9036 25.4373 81.9036 14.0645C81.9036 12.5822 81.7819 11.1239 81.5427 9.70916C75.2443 9.63007 69.1885 7.26662 64.5003 3.05733Z" fill="#EEEEEE"/>
<path d="M73.5738 12.2223L62.0514 25.8586L58.7061 23.132H56.8477L62.0514 32.2223L75.4324 12.2223H73.5738Z" fill="#EEEEEE"/>
</svg>
