<svg width="192" height="120" viewBox="0 0 192 120" fill="none" xmlns="http://www.w3.org/2000/svg">
<path d="M0 94.0048H5.43771C5.55182 96.4971 8.21362 97.5484 10.7996 97.5484C13.1573 97.5484 15.8953 96.9645 15.8953 94.1217C15.8953 91.0066 12.6247 90.7341 10.077 90.5392C5.24774 90.111 0.380252 88.4366 0.380252 82.7904C0.380252 76.7548 5.2095 74.2236 10.4952 74.2236C15.4768 74.2236 20.6483 76.3654 20.6483 82.479H15.3247C15.0206 80.2592 12.777 79.3248 10.4952 79.3248C8.21363 79.3248 5.97001 80.5709 5.97001 82.6735C5.97001 85.0878 8.2898 85.6329 11.0657 85.9446C16.6937 86.4509 21.5229 87.7358 21.5229 94.1217C21.5229 100.547 16.0852 102.533 10.8375 102.65C5.51389 102.65 0 99.9627 0 94.0048ZM32.1582 77.4947V83.3355H38.1282V87.4242H32.1582V94.7059C32.1582 98.5997 35.3144 98.7946 38.3564 97.6653L38.8508 101.793C32.5385 103.584 26.9484 102.533 26.9484 94.8228V87.4242L23.4879 87.0736V83.3355H27.3287L27.8992 77.4947H32.1582ZM54.0308 99.184C52.9283 101.52 50.0383 102.416 47.6806 102.416C44.2579 102.416 41.14 100.157 41.0259 96.536C40.8356 91.9411 44.068 89.7605 48.1367 89.7605C49.7718 89.7605 51.6352 90.0721 53.0042 90.9678V89.6828C53.0042 87.3853 50.2662 86.9959 48.4411 86.9959C46.5015 86.9959 44.7144 87.2296 43.1554 88.1252L42.4708 84.2311C44.4103 83.2966 46.8818 82.8292 49.3536 82.8292C54.0691 82.8292 58.0999 84.4259 58.0999 89.8385V96.614C58.0999 98.2104 58.0619 99.1451 59.8109 99.0283L59.8491 102.065C57.0732 102.688 54.0308 102.533 54.0308 99.184ZM52.8901 95.329V94.3554C51.8255 93.6154 50.4185 93.2652 49.0875 93.2652C47.4144 93.3821 46.0454 94.3554 46.2354 96.1854C46.3495 97.5484 47.5282 98.2104 48.7452 98.2104C50.4944 98.2104 52.7001 97.3148 52.8901 95.329ZM69.0787 85.9055C69.8392 83.764 71.9687 82.7124 74.2123 82.7124C75.6193 82.6735 77.0641 83.1021 78.129 83.9197L76.95 88.4755C75.8475 87.7358 74.7064 87.4242 73.5277 87.4633C71.2082 87.4633 69.2307 89.0208 69.2307 91.9022V102.065H64.0209V88.826C64.0209 87.2685 63.8689 86.256 62.1958 86.5285V83.1798C64.8576 82.5567 68.7743 82.5567 69.0787 85.9055Z" fill="#EEEEEE"/>
<path d="M78.8041 88.4752C78.8041 79.4026 85.4209 74.4183 92.4179 74.5351C97.7797 74.5351 103.484 77.4945 104.701 84.2309H99.1866C98.0079 81.1546 95.612 79.7919 92.4179 79.7919C87.7024 79.7919 84.5462 83.2964 84.5462 88.4752C84.5462 93.1481 87.6265 97.042 92.3799 97.042C95.6881 97.042 98.3882 95.4456 99.3007 92.1357H104.777C103.636 99.3394 97.9697 102.338 92.4179 102.338C85.4209 102.338 78.8041 97.5094 78.8041 88.4752ZM126.632 102.065H121.27V91.2012C121.384 88.5532 119.863 87.1902 117.886 87.1902C115.756 87.1514 113.969 88.7089 113.969 91.3181V102.065H108.607V73.6395H113.969V85.3213C115.148 83.6469 117.125 82.8682 119.407 82.8682C124.655 82.8682 126.632 86.3726 126.632 91.2012V102.065ZM139.852 82.829C146.545 82.829 149.397 87.4239 147.99 93.8101H135.556C135.746 96.7306 137.875 97.8599 140.423 98.0545C141.183 98.0933 142.058 98.1325 142.857 98.0156C144.492 97.8208 146.127 97.3925 147.23 96.8863L147.838 100.858C145.67 101.909 143.161 102.533 140.727 102.533C134.567 102.649 130.232 98.7944 130.232 92.4471C130.346 85.9052 134.985 82.829 139.852 82.829ZM139.852 86.9957C137.837 86.9957 136.012 88.125 135.593 90.3056H143.655C143.769 87.8525 141.83 86.9957 139.852 86.9957ZM169.962 90.0719H164.905C164.258 88.3195 162.699 87.4631 161.064 87.5019C158.782 87.5408 156.425 89.254 156.425 92.6031C156.425 95.9907 158.782 97.7819 161.064 97.7819C162.737 97.7819 164.334 96.8475 164.981 94.8614H170.038C169.278 99.8845 165.133 102.416 160.912 102.455C156.082 102.494 151.139 99.2226 151.139 92.6031C151.139 86.0221 156.12 82.7122 160.95 82.7122C165.095 82.7122 169.126 85.1656 169.962 90.0719ZM178.992 90.1888H180.285C184.506 90.1888 185.571 87.1125 185.571 83.2576H190.59C190.704 87.2294 189.83 90.5782 186.217 92.5251L191.465 101.481V102.026H186.103L181.73 94.2383C181.273 94.3943 180.779 94.472 180.209 94.472H178.992V102.026H173.706V73.6003H178.992V90.1888Z" fill="#266BF0"/>
<path d="M11.8364 108.202L15.0198 117.613L18.1539 108.202H18.9049L15.0198 119.803L11.0529 108.202H11.8364ZM24.1426 108.202V119.352H23.4405V108.202H24.1426ZM35.4007 109.64L34.8785 110.075C34.2581 109.105 33.6704 108.737 32.7398 108.737C31.5807 108.737 30.6994 109.657 30.6994 110.843C30.6994 111.746 31.1402 112.231 32.6257 112.966C34.0296 113.652 34.3071 113.802 34.7968 114.12C35.5476 114.638 35.9394 115.357 35.9394 116.26C35.9394 118.065 34.4212 119.536 32.544 119.536C31.042 119.536 29.9483 118.733 29.3279 117.145L29.9321 116.845C30.1934 117.396 30.324 117.63 30.536 117.915C30.993 118.499 31.7603 118.851 32.544 118.851C33.9969 118.851 35.2049 117.681 35.2049 116.26C35.2049 115.541 34.8296 114.956 34.1437 114.538C33.7845 114.337 33.7356 114.304 32.1194 113.485C30.4543 112.649 29.9648 112.03 29.9648 110.827C29.9648 109.222 31.1402 108.052 32.7563 108.052C33.8827 108.052 34.8296 108.62 35.4007 109.64ZM43.2035 108.871V119.352H42.5017V108.871H39.7102V108.202H46.044V108.871H43.2035ZM54.9416 108.052C58.0271 108.052 60.5901 110.659 60.5901 113.785C60.5901 116.945 58.0271 119.536 54.9089 119.536C51.8399 119.536 49.3096 116.895 49.3096 113.702C49.3096 110.676 51.9216 108.052 54.9416 108.052ZM54.9416 108.737C52.2969 108.737 50.0442 111.027 50.0442 113.719C50.0442 115.223 50.5829 116.51 51.6279 117.497C52.542 118.349 53.7501 118.851 54.9089 118.851C57.6352 118.851 59.8553 116.577 59.8553 113.785C59.8553 111.027 57.6352 108.737 54.9416 108.737ZM67.6235 114.086L71.1823 119.352H70.3171L66.8235 114.086H66.4971V119.352H65.795V108.202H67.3295C68.4397 108.202 69.0601 108.353 69.6312 108.771C70.3333 109.272 70.7252 110.125 70.7252 111.161C70.7252 112.314 70.2189 113.251 69.3538 113.719C68.9295 113.936 68.4724 114.036 67.6235 114.086ZM66.4971 113.418H67.5418C69.1091 113.418 70.0069 112.582 70.0069 111.144C70.0069 110.275 69.6313 109.539 69.0436 109.205C68.6355 108.971 68.0968 108.871 67.395 108.871H66.4971V113.418ZM76.9742 108.202V119.352H76.2721V108.202H76.9742ZM88.3954 115.691H83.7592L82.3061 119.352H81.5226L86.0934 107.868L90.6317 119.352H89.8317L88.3954 115.691ZM88.1342 115.022L86.0934 109.74L84.0202 115.022H88.1342ZM101.634 108.202L104.817 117.613L107.952 108.202H108.703L104.817 119.803L100.851 108.202H101.634ZM118.446 108.871H113.94V112.916H118.348V113.585H113.94V118.683H118.446V119.352H113.238V108.202H118.446V108.871ZM124.353 108.202V119.352H123.652V108.202H124.353ZM138.844 109.489V110.492C138.338 109.907 138.077 109.69 137.571 109.406C136.82 108.971 135.955 108.737 135.171 108.737C132.526 108.737 130.274 111.094 130.274 113.836C130.274 115.307 130.878 116.61 131.971 117.563C132.918 118.383 134.077 118.851 135.171 118.851C136.036 118.851 137.081 118.533 137.897 117.998C138.24 117.797 138.436 117.613 138.844 117.179V118.149C137.652 119.118 136.543 119.536 135.22 119.536C132.135 119.536 129.539 116.911 129.539 113.802C129.539 110.676 132.118 108.052 135.188 108.052C136.575 108.052 137.701 108.503 138.844 109.489ZM144.75 108.202V115.173C144.75 116.544 144.831 117.079 145.142 117.563C145.615 118.315 146.692 118.851 147.754 118.851C148.798 118.851 149.876 118.315 150.349 117.563C150.659 117.079 150.741 116.544 150.741 115.173V108.202H151.443V115.374C151.443 116.845 151.329 117.379 150.871 118.015C150.218 118.951 149.027 119.536 147.754 119.536C146.464 119.536 145.272 118.951 144.619 118.015C144.162 117.379 144.048 116.845 144.048 115.374V108.202H144.75ZM157.937 108.202V118.683H160.696V119.352H157.235V108.202H157.937ZM171.494 115.691H166.858L165.405 119.352H164.622L169.193 107.868L173.731 119.352H172.931L171.494 115.691ZM171.233 115.022L169.193 109.74L167.119 115.022H171.233ZM180.097 114.086L183.656 119.352H182.791L179.297 114.086H178.971V119.352H178.269V108.202H179.803C180.913 108.202 181.534 108.353 182.105 108.771C182.807 109.272 183.199 110.125 183.199 111.161C183.199 112.314 182.693 113.251 181.827 113.719C181.403 113.936 180.946 114.036 180.097 114.086ZM178.971 113.418H180.015C181.583 113.418 182.481 112.582 182.481 111.144C182.481 110.275 182.105 109.539 181.517 109.205C181.109 108.971 180.57 108.871 179.869 108.871H178.971V113.418Z" fill="#EEEEEE"/>
<path d="M70.1959 12.9908L68.7881 13.0087L68.5553 14.4309C68.1888 16.6723 67.9973 18.9719 67.9973 21.3186C67.9973 39.3138 79.2315 54.6179 94.8998 60.292L95.4615 60.4953L96.0228 60.292C111.691 54.6214 122.926 39.3173 122.926 21.322C122.926 18.9804 122.738 16.6732 122.367 14.4312L122.133 13.0121L120.727 12.9943C111.806 12.8796 103.228 9.45316 96.5866 3.35083L95.4618 2.31738L94.3366 3.35083C87.6954 9.45191 79.1174 12.8771 70.1959 12.9908Z" fill="#266BF0"/>
<path fill-rule="evenodd" clip-rule="evenodd" d="M95.4619 0L97.7117 2.06689C104.049 7.89008 112.234 11.1599 120.748 11.2694C120.748 11.2694 120.748 11.2694 120.748 11.2694L123.559 11.3051L124.028 14.1433C124.415 16.4825 124.61 18.8862 124.61 21.3221C124.61 40.0713 112.905 56.0118 96.5845 61.9185C96.5844 61.9185 96.5843 61.9185 96.5842 61.9186L95.4616 62.3251L94.3384 61.9186C78.0186 56.0085 66.3126 40.068 66.3126 21.3186C66.3126 18.8756 66.512 16.4807 66.8938 14.1461L67.3594 11.3017L70.1749 11.266C70.1749 11.266 70.175 11.266 70.1749 11.266C78.6885 11.1574 86.8742 7.88886 93.2116 2.06685L95.4619 0ZM95.4616 4.63497C88.5166 11.0151 79.5463 14.5969 70.2169 14.7158C70.2169 14.7159 70.2167 14.716 70.2167 14.7161C69.8655 16.8642 69.6819 19.0685 69.6819 21.3186C69.6819 38.5597 80.4446 53.2274 95.4612 58.6657C110.478 53.2309 121.241 38.5633 121.241 21.3221C121.241 19.0748 121.061 16.864 120.706 14.7192C111.377 14.5994 102.406 11.0163 95.4616 4.63497Z" fill="#EEEEEE"/>
<path d="M109.729 18.6184L92.038 38.5403L86.9016 34.5568H84.0483L92.038 47.8372L112.583 18.6184H109.729Z" fill="#EEEEEE"/>
</svg>
