<svg width="55" height="48" viewBox="0 0 55 48" fill="none" xmlns="http://www.w3.org/2000/svg">
<path d="M46.7349 13.6075C46.5847 13.6075 46.4344 13.6075 46.2841 13.6075C42.0765 13.6075 37.8688 13.6075 33.8114 13.6075C33.6612 13.6075 33.5109 13.6075 33.3606 13.6075C33.0601 13.6075 33.0601 13.458 33.0601 13.1589C33.2104 10.4673 32.3087 8.22434 30.5054 6.28042C28.4016 4.18696 25.847 3.4393 22.9918 3.88789C18.4836 4.63556 15.4781 8.67294 15.7787 12.8599C15.7787 13.458 15.7787 13.458 15.1776 13.458C12.9235 13.458 10.8196 13.458 8.56555 13.458C7.36336 13.458 6.76227 14.0561 6.76227 15.2524C6.76227 24.2243 6.76227 33.1963 6.76227 42.1683C6.76227 42.3178 6.76227 42.4673 6.76227 42.6169C6.76227 43.215 7.06281 43.5141 7.66391 43.8131C7.96445 43.9627 8.41527 43.9627 8.71582 43.9627C20.5874 43.9627 32.3087 43.9627 44.1803 43.9627C45.0819 43.9627 45.9836 43.9627 46.8852 43.9627C47.7869 43.9627 48.2377 43.5141 48.5382 42.7664C48.5382 33.4954 48.5382 24.0748 48.5382 14.8038C48.0874 13.9066 47.6366 13.6075 46.7349 13.6075ZM37.7186 14.6543C40.724 14.6543 43.5792 14.6543 46.5847 14.6543C47.1858 14.6543 47.336 14.8038 47.336 15.4019C47.336 20.9346 47.336 26.4673 47.336 32.1496C47.336 32.4486 47.1858 32.5982 46.8852 32.5982C43.8798 32.5982 40.724 32.5982 37.7186 32.5982C37.2677 32.5982 37.2677 32.4486 37.2677 32.1496C37.2677 29.3085 37.2677 26.4673 37.2677 23.6262C37.2677 20.7851 37.2677 17.944 37.2677 15.1028C37.2677 14.8038 37.418 14.6543 37.7186 14.6543ZM33.5109 14.6543C33.6612 14.6543 33.6612 14.6543 33.6612 14.8038C33.6612 14.9533 33.6612 14.9533 33.6612 15.1028C33.6612 18.243 33.6612 21.5328 33.6612 24.6729C33.6612 24.972 33.5109 25.1215 33.2104 24.972C31.1065 24.8225 29.0027 24.6729 26.7486 24.5234C27.5 23.4767 28.1011 22.5795 28.7022 21.5328C30.0546 19.5888 31.4071 17.4954 32.3087 15.2524C32.459 14.6543 32.7595 14.5047 33.5109 14.6543ZM22.6912 5.08416C27.3497 4.18696 31.8579 7.77575 31.8579 12.5608C31.8579 13.6075 31.4071 14.5047 31.1065 15.4019C30.0546 17.7944 28.5519 19.8879 27.1994 21.9814C26.2978 23.3271 25.2459 24.6729 24.3442 26.1683C22.9918 24.2243 21.7896 22.43 20.5874 20.6356C19.3852 18.8412 18.3333 17.0468 17.4317 15.1028C15.3278 11.0655 18.3333 6.13089 22.6912 5.08416ZM15.9289 14.6543C16.0792 14.6543 16.0792 14.6543 16.2295 14.8038C16.8306 16.4486 17.7322 18.0935 18.4836 19.2898C17.1311 17.944 15.3278 16.2991 13.8251 14.6543C14.2759 14.6543 15.1776 14.6543 15.9289 14.6543ZM11.8716 14.6543C12.0218 14.6543 12.1721 14.6543 12.3224 14.8038C15.4781 17.944 18.6339 20.9346 21.6393 24.0748C22.3907 24.8225 22.8415 25.7197 23.4426 26.4673C23.5929 26.6169 23.4426 26.6169 23.2923 26.6169C22.8415 26.6169 22.3907 26.6169 21.7896 26.4673C21.6393 26.4673 21.6393 26.3178 21.489 26.3178C17.5819 22.43 13.6748 18.5421 9.76773 14.6543C9.76773 14.6543 9.76773 14.6543 9.61746 14.5047C10.3688 14.6543 11.1202 14.6543 11.8716 14.6543ZM7.66391 15.4019C7.66391 15.2524 7.66391 15.2524 7.66391 15.1028C7.66391 14.8038 7.81418 14.6543 7.96445 14.6543C8.265 14.6543 8.265 14.8038 8.41527 14.9533C12.0218 18.5421 15.6284 22.1309 19.2349 25.7197C19.836 26.3178 20.2869 26.7664 20.888 27.3645C21.0382 27.5141 21.3388 27.6636 21.489 27.6636C23.5929 27.8131 25.6967 27.9627 27.6502 28.1122C29.4535 28.2617 31.2568 28.4113 33.2104 28.5608C33.5109 28.5608 33.5109 28.7103 33.5109 28.8599C33.5109 29.9066 33.5109 30.9533 33.5109 32C33.5109 32.2991 33.3606 32.2991 33.0601 32.2991C28.8524 32.2991 24.6448 32.2991 20.4371 32.2991C16.2295 32.2991 12.1721 32.2991 7.96445 32.2991C7.66391 32.2991 7.51363 32.2991 7.51363 31.8505C7.66391 26.4673 7.66391 20.9346 7.66391 15.4019ZM13.224 42.9159C11.571 42.9159 10.0683 42.9159 8.41527 42.9159C7.96445 42.9159 7.81418 42.7664 7.81418 42.3178C7.81418 40.3739 7.81418 38.43 7.81418 36.486C7.81418 36.187 7.96445 36.187 8.11473 36.187C9.76773 36.187 11.571 36.187 13.224 36.187C13.5246 36.187 13.5246 36.187 13.5246 36.486C13.5246 37.5328 13.5246 38.43 13.5246 39.4767C13.5246 40.5234 13.5246 41.4206 13.5246 42.4673C13.5246 42.9159 13.5246 42.9159 13.224 42.9159ZM33.0601 42.9159C27.9508 42.9159 22.8415 42.9159 17.7322 42.9159C17.4317 42.9159 17.2814 42.9159 17.2814 42.4673C17.2814 40.5234 17.2814 38.43 17.2814 36.486C17.2814 36.187 17.2814 36.187 17.5819 36.187C21.6393 36.187 25.6967 36.187 29.7541 36.187C29.9043 36.187 30.0546 36.187 30.2049 36.3365C31.2568 38.43 32.3087 40.5234 33.3606 42.7664V42.9159C33.3606 42.9159 33.2104 42.9159 33.0601 42.9159ZM47.336 42.1683C47.336 42.7664 47.1858 42.9159 46.5847 42.9159C43.5792 42.9159 40.5737 42.9159 37.5683 42.9159C37.418 42.9159 37.2677 42.9159 37.1175 42.6169C36.0655 40.5234 35.0136 38.43 33.9617 36.3365C33.9617 36.3365 33.8114 36.187 33.9617 36.187C34.112 36.187 34.2623 36.187 34.4125 36.187C38.6202 36.187 42.6776 36.187 46.8852 36.187C47.1858 36.187 47.336 36.3365 47.336 36.6356C47.336 38.43 47.336 40.3739 47.336 42.1683ZM47.336 34.8412C47.336 35.1402 47.1858 35.2898 46.8852 35.2898C42.377 35.2898 38.0191 35.2898 33.5109 35.2898C33.3606 35.2898 33.3606 35.2898 33.2104 35.2898C32.6093 35.2898 32.459 35.5888 32.7595 36.187C33.2104 37.0842 33.6612 38.1309 34.112 39.0281C34.7131 40.2243 35.3142 41.5701 35.9153 42.7664C35.9153 42.9159 36.0655 42.9159 36.0655 43.0655C35.6147 43.0655 35.1639 43.0655 34.7131 43.0655C34.4125 43.0655 34.4125 42.9159 34.4125 42.7664C33.2104 40.5234 32.1584 38.1309 30.9563 35.8879C30.806 35.4393 30.5054 35.2898 30.0546 35.2898C25.6967 35.2898 21.3388 35.2898 16.9808 35.2898C16.3798 35.2898 16.2295 35.4393 16.2295 36.0374C16.2295 38.1309 16.2295 40.3739 16.2295 42.4673C16.2295 42.9159 16.0792 42.9159 15.7787 42.9159C15.4781 42.9159 15.1776 42.9159 14.877 42.9159C14.5765 42.9159 14.5765 42.7664 14.5765 42.6169C14.5765 40.3739 14.5765 38.2804 14.5765 36.0374C14.5765 35.2898 14.4262 35.2898 13.8251 35.2898C11.8716 35.2898 10.0683 35.2898 8.11473 35.2898C7.81418 35.2898 7.66391 35.1402 7.66391 34.8412C7.66391 34.5421 7.66391 34.0935 7.66391 33.7944C7.66391 33.6449 7.66391 33.4954 7.96445 33.4954C8.11473 33.4954 8.11473 33.4954 8.265 33.4954C16.6803 33.4954 25.2459 33.4954 33.6612 33.4954C34.4125 33.4954 34.5628 33.4954 34.5628 32.5982C34.5628 31.2524 34.5628 29.9066 34.5628 28.4113C34.5628 27.8131 34.4125 27.6636 33.8114 27.6636C31.1065 27.3645 28.2513 27.215 25.5464 26.9159C25.3961 26.9159 25.2459 26.9159 24.9453 26.9159C25.2459 26.4673 25.5464 26.0187 25.847 25.5701C25.9972 25.4206 25.9972 25.4206 26.1475 25.4206C28.7022 25.5701 31.1065 25.8692 33.6612 26.0187C34.2623 26.0187 34.4125 25.8692 34.4125 25.2711C34.4125 21.8318 34.4125 18.3926 34.4125 15.1028C34.4125 14.8038 34.5628 14.6543 34.8634 14.6543C35.1639 14.6543 35.6147 14.6543 35.9153 14.6543C36.2158 14.6543 36.2158 14.8038 36.2158 14.9533C36.2158 16.1496 36.2158 17.4954 36.2158 18.6916C36.2158 23.3271 36.2158 27.9627 36.2158 32.4486C36.2158 33.1963 36.2158 33.3458 37.1175 33.3458C40.4235 33.3458 43.5792 33.3458 46.8852 33.3458C47.1858 33.3458 47.336 33.4954 47.336 33.7944C47.336 34.243 47.336 34.5421 47.336 34.8412Z" fill="#EEEEEE"/>
<path d="M24.3443 17.6448C27.0492 17.6448 29.153 15.5513 29.153 12.8598C29.153 10.3177 27.0492 8.07471 24.3443 8.07471C21.7896 8.07471 19.5355 10.1682 19.5355 12.8598C19.5355 15.4018 21.6393 17.6448 24.3443 17.6448ZM24.3443 9.12144C26.4481 9.12144 28.1011 10.9158 28.1011 13.0093C28.1011 15.1027 26.2978 16.7476 24.194 16.7476C22.0902 16.7476 20.4372 14.9532 20.4372 13.0093C20.5874 10.7663 22.2404 9.12144 24.3443 9.12144Z" fill="#EEEEEE"/>
</svg>
