<svg width="26" height="27" viewBox="0 0 26 27" fill="none" xmlns="http://www.w3.org/2000/svg">
<g id="copiar colar 1" clip-path="url(#clip0_194_1847)">
<g id="Group">
<path id="Vector" d="M23.0445 7.31705C23.0445 7.31198 23.0445 7.31198 23.0395 7.30691C23.0141 7.24604 22.9785 7.19532 22.9379 7.1446C22.9379 7.1446 22.9379 7.13953 22.9328 7.13953L20.7086 4.82662V2.9702C20.7086 1.80361 19.759 0.85511 18.591 0.85511H5.08828C3.88984 0.85511 2.91992 1.82897 2.91992 3.02093V22.6249C2.91992 23.8219 3.89492 24.7907 5.08828 24.7907H5.30156C5.39805 25.8964 6.33242 26.7688 7.45977 26.7688H20.9066C22.1051 26.7688 23.075 25.795 23.075 24.603V7.50472C23.0801 7.43878 23.0648 7.37285 23.0445 7.31705ZM19.0887 4.67445L21.3078 6.97722H19.0887V4.67445ZM3.98125 22.6299V3.02093C3.98125 2.40719 4.47891 1.91012 5.09336 1.91012H18.5961C19.1801 1.91012 19.6523 2.38183 19.6523 2.96513V3.72596L18.9414 2.99556C18.9414 2.99556 18.9363 2.99556 18.9363 2.99049C18.9211 2.97528 18.9008 2.96006 18.8855 2.94484C18.8754 2.93977 18.8703 2.92963 18.8602 2.92455C18.8348 2.90427 18.8043 2.88905 18.7738 2.87891C18.7738 2.87891 18.7738 2.87891 18.7688 2.87891C18.7027 2.85354 18.6367 2.83833 18.5605 2.83833H7.46484C6.26641 2.83833 5.29648 3.81218 5.29648 5.00414V23.7407H5.09336C4.47891 23.7357 3.98125 23.2386 3.98125 22.6299ZM20.9117 25.7138H7.46484C6.85039 25.7138 6.35273 25.2167 6.35273 24.603V4.99907C6.35273 4.38534 6.85039 3.88827 7.46484 3.88827H18.0273V7.50472C18.0273 7.79891 18.266 8.03223 18.5555 8.03223H22.0188V24.603C22.0188 25.2167 21.5211 25.7138 20.9117 25.7138Z" fill="#266BF0"/>
<path id="Vector_2" d="M14.8641 8.0373H15.8645C16.1591 8.0373 16.3927 7.79891 16.3927 7.5098C16.3927 7.21561 16.154 6.98229 15.8645 6.98229H14.8641C14.5696 6.98229 14.336 7.22068 14.336 7.5098C14.3309 7.79891 14.5696 8.0373 14.8641 8.0373Z" fill="#266BF0"/>
<path id="Vector_3" d="M8.64735 8.0373H11.9888C12.2833 8.0373 12.5169 7.79891 12.5169 7.5098C12.5169 7.21561 12.2782 6.98229 11.9888 6.98229H8.64735C8.35281 6.98229 8.11922 7.22068 8.11922 7.5098C8.11414 7.79891 8.35281 8.0373 8.64735 8.0373Z" fill="#266BF0"/>
<path id="Vector_4" d="M19.3371 20.4134H11.9891C11.6945 20.4134 11.4609 20.6518 11.4609 20.9409C11.4609 21.23 11.6996 21.4684 11.9891 21.4684H19.3371C19.6316 21.4684 19.8652 21.23 19.8652 20.9409C19.8652 20.6518 19.6316 20.4134 19.3371 20.4134Z" fill="#266BF0"/>
<path id="Vector_5" d="M9.94219 20.4134H8.64727C8.35273 20.4134 8.11914 20.6518 8.11914 20.9409C8.11914 21.23 8.35781 21.4684 8.64727 21.4684H9.94219C10.2367 21.4684 10.4703 21.23 10.4703 20.9409C10.4703 20.6518 10.2367 20.4134 9.94219 20.4134Z" fill="#266BF0"/>
<path id="Vector_6" d="M19.3379 17.1063H17.3523C17.0578 17.1063 16.8242 17.3447 16.8242 17.6338C16.8242 17.923 17.0629 18.1614 17.3523 18.1614H19.3379C19.6324 18.1614 19.866 17.923 19.866 17.6338C19.866 17.3447 19.6324 17.1063 19.3379 17.1063Z" fill="#266BF0"/>
<path id="Vector_7" d="M8.64727 18.1664H14.5074C14.802 18.1664 15.0355 17.928 15.0355 17.6389C15.0355 17.3498 14.7969 17.1114 14.5074 17.1114H8.64727C8.35273 17.1114 8.11914 17.3498 8.11914 17.6389C8.11914 17.928 8.35273 18.1664 8.64727 18.1664Z" fill="#266BF0"/>
<path id="Vector_8" d="M19.3383 13.7942H15.3621C15.0676 13.7942 14.834 14.0326 14.834 14.3217C14.834 14.6108 15.0727 14.8492 15.3621 14.8492H19.3383C19.6328 14.8492 19.8664 14.6108 19.8664 14.3217C19.8664 14.0326 19.6328 13.7942 19.3383 13.7942Z" fill="#266BF0"/>
<path id="Vector_9" d="M8.64844 14.8543H12.6957C12.9902 14.8543 13.2238 14.6159 13.2238 14.3268C13.2238 14.0377 12.9852 13.7993 12.6957 13.7993H8.64336C8.34883 13.7993 8.11523 14.0377 8.11523 14.3268C8.11523 14.6159 8.35391 14.8543 8.64844 14.8543Z" fill="#266BF0"/>
<path id="Vector_10" d="M19.3371 10.3857H11.9891C11.6945 10.3857 11.4609 10.6241 11.4609 10.9132C11.4609 11.2074 11.6996 11.4407 11.9891 11.4407H19.3371C19.6316 11.4407 19.8652 11.2023 19.8652 10.9132C19.8652 10.6241 19.6316 10.3857 19.3371 10.3857Z" fill="#266BF0"/>
<path id="Vector_11" d="M8.64735 11.4458H9.60203C9.89656 11.4458 10.1302 11.2074 10.1302 10.9183C10.1302 10.6241 9.89149 10.3908 9.60203 10.3908H8.64735C8.35281 10.3908 8.11922 10.6292 8.11922 10.9183C8.11414 11.2074 8.35281 11.4458 8.64735 11.4458Z" fill="#266BF0"/>
</g>
</g>
<defs>
<clipPath id="clip0_194_1847">
<rect width="26" height="25.9695" fill="white" transform="translate(0 0.77903)"/>
</clipPath>
</defs>
</svg>
