<svg width="33" height="44" viewBox="0 0 33 44" fill="none" xmlns="http://www.w3.org/2000/svg">
<path d="M13.9324 0.0816326C13.9324 0.0816326 12.5062 0.244898 11.2384 0.734694C3.47337 3.18367 -1.28073 11.5102 0.303974 19.6735C0.937853 22.7755 2.04714 25.7143 3.63184 28.6531C6.64277 34.2041 10.763 39.102 15.2001 43.5102C15.834 44.1633 16.151 44.1633 16.7848 43.5102C19.7958 40.7347 22.4898 37.6327 24.8668 34.3674C27.2439 31.102 29.304 27.5102 30.7302 23.5918C31.8395 20.3265 32.3149 17.0612 31.8395 13.7959C30.5717 5.95918 23.2821 1.22449 19.1619 0.408163C16.4679 -0.244898 13.9324 0.0816326 13.9324 0.0816326ZM29.9379 13.7959C30.0963 14.6122 30.0963 15.4286 30.0963 16.2449C30.0963 19.3469 29.304 22.1224 28.1947 24.7347C26.293 28.9796 23.7575 32.7347 20.9051 36.3265C19.4788 38.1225 17.8941 39.7551 16.3094 41.3878C16.151 41.551 15.9925 41.551 15.834 41.3878C11.7138 37.3061 8.069 32.898 5.21654 27.6735C3.79031 25.0612 2.68102 22.2857 2.04714 19.1837C0.620914 11.6735 5.21654 4.16327 12.5062 2.20408C20.4297 0.0816326 28.6701 5.46939 29.9379 13.7959Z" fill="#EEEEEE"/>
<path d="M7.11818 15.9183C6.95971 20.9795 10.763 25.2244 15.6756 25.3877C20.5881 25.551 24.7083 21.6326 24.8668 16.5714C25.0253 11.6734 21.222 7.4285 16.3094 7.10197C11.5553 6.9387 7.27665 10.8571 7.11818 15.9183ZM15.9925 9.06115C19.9542 9.06115 23.1236 12.3265 23.1236 16.4081C23.1236 20.4897 19.9542 23.755 15.9925 23.755C12.0307 23.755 8.86135 20.4897 8.86135 16.4081C8.86135 12.3265 12.0307 9.06115 15.9925 9.06115Z" fill="#EEEEEE"/>
</svg>
