<svg width="62" height="54" viewBox="0 0 62 54" fill="none" xmlns="http://www.w3.org/2000/svg">
<path d="M28.7978 4.54212C28.7978 4.54212 27.2732 4.71034 25.918 5.21502C17.6175 7.73838 12.5355 16.3178 14.2295 24.729C14.9071 27.9253 16.0929 30.9533 17.7869 33.9814C21.0054 39.701 25.4098 44.7477 30.153 49.2898C30.8306 49.9627 31.1694 49.9627 31.847 49.2898C35.0655 46.43 37.9453 43.2337 40.4863 39.8692C43.0273 36.5047 45.2295 32.8038 46.7541 28.7664C47.9399 25.4019 48.4481 22.0374 47.9399 18.673C46.5847 10.5982 38.7923 5.71969 34.3879 4.87857C31.5082 4.20567 28.7978 4.54212 28.7978 4.54212ZM45.9071 18.673C46.0765 19.5141 46.0765 20.3552 46.0765 21.1963C46.0765 24.3926 45.2295 27.2524 44.0437 29.944C42.0109 34.3178 39.3005 38.187 36.2513 41.8879C34.7267 43.7384 33.0328 45.4206 31.3388 47.1029C31.1694 47.2711 31 47.2711 30.8306 47.1029C26.4262 42.8973 22.53 38.3552 19.4808 32.972C17.9563 30.2804 16.7705 27.4206 16.0929 24.2244C14.5683 16.486 19.4808 8.74773 27.2732 6.72904C35.7431 4.54212 44.5519 10.0935 45.9071 18.673Z" fill="#266BF0"/>
<path d="M21.5137 20.8599C21.3443 26.0749 25.4098 30.4487 30.6612 30.6169C35.9126 30.7852 40.3169 26.7478 40.4863 21.5328C40.6557 16.4861 36.5902 12.1123 31.3388 11.7758C26.2568 11.6076 21.6831 15.645 21.5137 20.8599ZM31 13.7945C35.235 13.7945 38.6229 17.159 38.6229 21.3646C38.6229 25.5702 35.235 28.9347 31 28.9347C26.765 28.9347 23.377 25.5702 23.377 21.3646C23.377 17.159 26.765 13.7945 31 13.7945Z" fill="#266BF0"/>
</svg>
