<svg width="30" height="30" viewBox="0 0 30 30" fill="none" xmlns="http://www.w3.org/2000/svg">
<path d="M7.65574 21.9563C8.16218 21.9574 8.66382 21.8582 9.13173 21.6645C9.59964 21.4708 10.0246 21.1863 10.382 20.8275L14.3195 16.89C14.4589 16.7576 14.6438 16.6838 14.8361 16.6838C15.0283 16.6838 15.2132 16.7576 15.3526 16.89L19.3051 20.8425C19.6624 21.2015 20.0873 21.486 20.5553 21.6798C21.0232 21.8735 21.5249 21.9726 22.0314 21.9713H22.8076L17.8201 26.9588C16.2639 28.515 13.7382 28.515 12.182 26.9588L7.18137 21.9563H7.65574ZM22.0314 8.02876C21.0001 8.02876 20.0326 8.43001 19.3051 9.15751L15.3526 13.11C15.2847 13.178 15.204 13.232 15.1152 13.2688C15.0264 13.3057 14.9312 13.3246 14.8351 13.3246C14.739 13.3246 14.6438 13.3057 14.555 13.2688C14.4662 13.232 14.3855 13.178 14.3176 13.11L10.3801 9.17251C10.023 8.81379 9.59844 8.52934 9.13084 8.33561C8.66324 8.14187 8.16189 8.04268 7.65574 8.04376H7.18137L12.182 3.04313C12.9298 2.29581 13.9438 1.87601 15.0011 1.87601C16.0583 1.87601 17.0723 2.29581 17.8201 3.04313L22.8076 8.03063L22.0314 8.02876Z" fill="#266BF0"/>
<path d="M3.04309 12.18L6.06559 9.1575C6.13344 9.18537 6.20599 9.2 6.27934 9.20063H7.65371C8.36434 9.20063 9.05996 9.48938 9.56059 9.99188L13.4981 13.9294C13.6732 14.1054 13.8814 14.2451 14.1106 14.3404C14.3399 14.4357 14.5857 14.4848 14.834 14.4848C15.0823 14.4848 15.3282 14.4357 15.5574 14.3404C15.7867 14.2451 15.9949 14.1054 16.17 13.9294L20.1225 9.975C20.6296 9.46999 21.3155 9.18562 22.0312 9.18375H23.7187C23.7887 9.1832 23.8579 9.16985 23.9231 9.14438L26.9568 12.18C28.5131 13.7363 28.5131 16.2619 26.9568 17.82L23.9231 20.8538C23.8587 20.8278 23.79 20.8138 23.7206 20.8125H22.0312C21.3187 20.8125 20.625 20.5256 20.1225 20.0231L16.1718 16.0688C15.8114 15.7255 15.3327 15.5341 14.835 15.5341C14.3372 15.5341 13.8586 15.7255 13.4981 16.0688L9.56059 20.0063C9.05996 20.5088 8.36434 20.7956 7.65371 20.7956H6.27934C6.20434 20.7956 6.13121 20.8144 6.06559 20.8406L3.04309 17.8181C1.48684 16.2619 1.48684 13.7363 3.04309 12.18Z" fill="#266BF0"/>
</svg>
