<svg width="36" height="32" viewBox="5 0 36 32" fill="none" xmlns="http://www.w3.org/2000/svg">
<path d="M15.0491 21.732C17.0164 23.2273 19.1803 24.1245 21.6393 24.2242C22.0328 24.2242 22.3278 24.2242 22.7213 24.1245C23.9016 24.0249 24.9836 23.5264 25.7705 22.5295C26.459 21.732 26.7541 20.8348 26.9508 19.8379C27.0491 19.4392 26.9508 19.2398 26.6557 19.0404C25.7705 18.4423 24.8852 17.9439 23.9016 17.3457C23.7049 17.246 23.4098 17.0467 23.2131 16.947C22.6229 16.7476 22.2295 16.8473 21.836 17.3457C21.4426 17.9439 20.9508 18.4423 20.459 19.0404C20.1639 19.4392 20.0655 19.4392 19.6721 19.1401C18.0983 18.2429 16.7213 17.246 15.5409 15.8504C15.0491 15.352 14.6557 14.8535 14.459 14.1557C14.3606 13.9563 14.459 13.8566 14.5573 13.7569C14.8524 13.4579 15.1475 13.0591 15.3442 12.7601C15.6393 12.2616 15.7377 11.7632 15.5409 11.2647C15.1475 10.1682 14.459 8.97189 13.7705 7.87532C13.5737 7.67594 13.377 7.47656 13.0819 7.47656C12.5901 7.47656 12.0983 7.47656 11.5082 7.57625C11.4098 7.57625 11.2131 7.67594 11.2131 7.77563C10.8196 8.27407 10.4262 8.77251 10.1311 9.27096C9.14751 10.9657 8.95079 12.7601 9.63931 14.6541C10.918 17.5451 12.6885 19.9376 15.0491 21.732Z" fill="#266BF0"/>
</svg>
