<svg width="49" height="49" viewBox="0 0 49 49" fill="none" xmlns="http://www.w3.org/2000/svg">
<g id="Group 1279">
<g id="Group 1177">
<g id="Group 1278">
<g id="Group 1020">
<g id="Ellipse 9" filter="url(#filter0_d_204_74304)">
<circle cx="19.5" cy="19.5" r="19.5" transform="matrix(1 0 0 -1 5 42)" fill="white"/>
</g>
</g>
</g>
</g>
<path id="Vector (Stroke)" fill-rule="evenodd" clip-rule="evenodd" d="M16 22C16 21.4477 16.3806 21 16.85 21H32.15C32.6194 21 33 21.4477 33 22C33 22.5523 32.6194 23 32.15 23H16.85C16.3806 23 16 22.5523 16 22Z" fill="#0B4A89"/>
<path id="Vector (Stroke)_2" fill-rule="evenodd" clip-rule="evenodd" d="M16 17C16 16.4477 16.3806 16 16.85 16H32.15C32.6194 16 33 16.4477 33 17C33 17.5523 32.6194 18 32.15 18H16.85C16.3806 18 16 17.5523 16 17Z" fill="#0B4A89"/>
<path id="Vector (Stroke)_3" fill-rule="evenodd" clip-rule="evenodd" d="M16 27C16 26.4477 16.3806 26 16.85 26H32.15C32.6194 26 33 26.4477 33 27C33 27.5523 32.6194 28 32.15 28H16.85C16.3806 28 16 27.5523 16 27Z" fill="#0B4A89"/>
</g>
<defs>
<filter id="filter0_d_204_74304" x="0" y="0" width="49" height="49" filterUnits="userSpaceOnUse" color-interpolation-filters="sRGB">
<feFlood flood-opacity="0" result="BackgroundImageFix"/>
<feColorMatrix in="SourceAlpha" type="matrix" values="0 0 0 0 0 0 0 0 0 0 0 0 0 0 0 0 0 0 127 0" result="hardAlpha"/>
<feOffset dy="2"/>
<feGaussianBlur stdDeviation="2.5"/>
<feComposite in2="hardAlpha" operator="out"/>
<feColorMatrix type="matrix" values="0 0 0 0 0 0 0 0 0 0 0 0 0 0 0 0 0 0 0.14 0"/>
<feBlend mode="normal" in2="BackgroundImageFix" result="effect1_dropShadow_204_74304"/>
<feBlend mode="normal" in="SourceGraphic" in2="effect1_dropShadow_204_74304" result="shape"/>
</filter>
</defs>
</svg>
