<svg width="12" height="14" viewBox="0 0 12 14" fill="none" xmlns="http://www.w3.org/2000/svg">
<g id="Group 1006">
<g id="Group 986">
<g id="Group 984">
<path id="Vector (Stroke)" fill-rule="evenodd" clip-rule="evenodd" d="M0.976289 8.97629C1.6014 8.35118 2.44922 8 3.33326 8H8.66647C9.55051 8 10.3983 8.35118 11.0234 8.97629C11.6486 9.6014 11.9997 10.4492 11.9997 11.3333V12.6666C11.9997 13.0347 11.7013 13.3332 11.3331 13.3332C10.9649 13.3332 10.6664 13.0347 10.6664 12.6666V11.3333C10.6664 10.8028 10.4557 10.2941 10.0807 9.91908C9.70559 9.54401 9.1969 9.3333 8.66647 9.3333H3.33326C2.80284 9.3333 2.29414 9.54401 1.91908 9.91908C1.54401 10.2941 1.3333 10.8028 1.3333 11.3333V12.6666C1.3333 13.0347 1.03483 13.3332 0.666652 13.3332C0.29847 13.3332 0 13.0347 0 12.6666V11.3333C0 10.4492 0.351182 9.6014 0.976289 8.97629Z" fill="#0B4A89"/>
<path id="Vector (Stroke)_2" fill-rule="evenodd" clip-rule="evenodd" d="M5.99928 1.3333C4.89473 1.3333 3.99932 2.22871 3.99932 3.33326C3.99932 4.4378 4.89473 5.33322 5.99928 5.33322C7.10382 5.33322 7.99923 4.4378 7.99923 3.33326C7.99923 2.22871 7.10382 1.3333 5.99928 1.3333ZM2.66602 3.33326C2.66602 1.49235 4.15837 0 5.99928 0C7.84018 0 9.33253 1.49235 9.33253 3.33326C9.33253 5.17417 7.84018 6.66652 5.99928 6.66652C4.15837 6.66652 2.66602 5.17417 2.66602 3.33326Z" fill="#0B4A89"/>
</g>
</g>
</g>
</svg>
