<svg width="10" height="10" viewBox="0 0 10 10" fill="none" xmlns="http://www.w3.org/2000/svg">
<g id="Group 1037">
<path id="Vector (Stroke)" fill-rule="evenodd" clip-rule="evenodd" d="M0 5C0 4.30964 0.447715 3.75 1 3.75H9C9.55229 3.75 10 4.30964 10 5C10 5.69036 9.55229 6.25 9 6.25H1C0.447715 6.25 0 5.69036 0 5Z" fill="#5D7281"/>
<path id="Vector (Stroke)_2" fill-rule="evenodd" clip-rule="evenodd" d="M5 10C4.30964 10 3.75 9.55228 3.75 9L3.75 1C3.75 0.447715 4.30964 -2.44628e-08 5 -5.46392e-08C5.69036 -8.48157e-08 6.25 0.447715 6.25 1L6.25 9C6.25 9.55228 5.69036 10 5 10Z" fill="#5D7281"/>
</g>
</svg>
