<svg width="12" height="17" viewBox="0 0 12 17" fill="none" xmlns="http://www.w3.org/2000/svg">
<path fill-rule="evenodd" clip-rule="evenodd" d="M5.60185 1.40046C3.28149 1.40046 1.40046 3.28149 1.40046 5.60185C1.40046 7.92221 3.28149 9.80323 5.60185 9.80323C7.92221 9.80323 9.80323 7.92221 9.80323 5.60185C9.80323 3.28149 7.92221 1.40046 5.60185 1.40046ZM0 5.60185C0 2.50803 2.50803 0 5.60185 0C8.69566 0 11.2037 2.50803 11.2037 5.60185C11.2037 8.69566 8.69566 11.2037 5.60185 11.2037C2.50803 11.2037 0 8.69566 0 5.60185Z" fill="#5D7281"/>
<path fill-rule="evenodd" clip-rule="evenodd" d="M8.16357 9.02508C8.54694 8.97422 8.89895 9.24377 8.94981 9.62714L9.79709 16.0132C9.83246 16.2798 9.71209 16.543 9.48736 16.6906C9.26263 16.8382 8.97323 16.8441 8.74268 16.7058L5.60179 14.8212L2.4609 16.7058C2.23034 16.8441 1.94092 16.8382 1.71619 16.6906C1.49145 16.543 1.3711 16.2797 1.4065 16.0131L2.25378 9.63404C2.3047 9.25068 2.65675 8.98118 3.04011 9.0321C3.42347 9.08302 3.69297 9.43507 3.64205 9.81843L2.98604 14.7575L5.24153 13.4042C5.46328 13.2712 5.74031 13.2712 5.96206 13.4042L8.21777 14.7576L7.56152 9.81133C7.51066 9.42796 7.7802 9.07595 8.16357 9.02508Z" fill="#5D7281"/>
</svg>
