<svg width="20" height="20" viewBox="0 0 20 20" fill="none" xmlns="http://www.w3.org/2000/svg">
<path id="Vector" d="M10 0C9.26261 0 8.52517 0.280511 7.96404 0.841644L4.38109 4.4246H4.48928C5.40292 4.4246 6.25856 4.77756 6.90602 5.42502L9.41689 7.93591C9.74062 8.25244 10.2594 8.25244 10.5831 7.93591L13.094 5.42502C13.7414 4.77756 14.5971 4.4246 15.5107 4.4246H15.6189L12.036 0.841644C11.4748 0.280511 10.7374 0 10 0ZM3.30199 5.50371L0.841698 7.96401C-0.280566 9.08627 -0.280566 10.9137 0.841698 12.0359L3.30199 14.4962H4.48928C5.11516 14.4962 5.70563 14.2522 6.14446 13.8134L8.65534 11.3025C9.39632 10.5615 10.6037 10.5615 11.3447 11.3025L13.8555 13.8134C14.2944 14.2522 14.8848 14.4962 15.5107 14.4962H16.698L19.1583 12.0359C20.2806 10.9137 20.2806 9.08627 19.1583 7.96401L16.698 5.50371H15.5107C14.8848 5.50371 14.2944 5.74774 13.8555 6.18658L11.3447 8.69746C10.9778 9.06435 10.4892 9.25247 10 9.25247C9.51081 9.25247 9.02223 9.06435 8.65534 8.69746L6.14446 6.18658C5.70563 5.74774 5.11516 5.50371 4.48928 5.50371H3.30199ZM10 11.8266C9.78958 11.8266 9.57876 11.9058 9.41689 12.064L6.90602 14.5749C6.25856 15.2224 5.40292 15.5753 4.48928 15.5753H4.38109L7.96404 19.1583C9.08631 20.2806 10.9137 20.2806 12.036 19.1583L15.6189 15.5753H15.5107C14.5971 15.5753 13.7414 15.2224 13.094 14.5749L10.5831 12.064C10.4212 11.9058 10.2104 11.8266 10 11.8266Z" fill="white"/>
</svg>
