<svg width="14" height="14" viewBox="0 0 14 14" fill="none" xmlns="http://www.w3.org/2000/svg">
<g id="Group 1407">
<path id="Vector (Stroke)" fill-rule="evenodd" clip-rule="evenodd" d="M9.331 1.76855C8.20288 1.26589 6.94249 1.14136 5.73781 1.41354C4.53314 1.68572 3.44872 2.34003 2.64629 3.27887C1.84385 4.21772 1.3664 5.3908 1.28514 6.62316C1.20388 7.85553 1.52316 9.08115 2.19537 10.1172C2.86757 11.1533 3.85669 11.9443 5.01519 12.3724C6.1737 12.8004 7.43952 12.8424 8.62388 12.4922C9.80824 12.1421 10.8477 11.4184 11.5872 10.4292C12.3266 9.44004 12.7266 8.23831 12.7273 7.00327V6.41818C12.7273 6.06673 13.0122 5.78182 13.3636 5.78182C13.7151 5.78182 14 6.06673 14 6.41818V7.00364C13.9991 8.51313 13.5103 9.98227 12.6065 11.1913C11.7027 12.4003 10.4323 13.2847 8.98474 13.7127C7.5372 14.1407 5.99008 14.0893 4.57413 13.5662C3.15817 13.0431 1.94926 12.0763 1.12767 10.8099C0.306086 9.54362 -0.0841461 8.04565 0.0151737 6.53942C0.114494 5.0332 0.698044 3.59943 1.67879 2.45196C2.65955 1.30448 3.98495 0.504774 5.45733 0.172109C6.92971 -0.160556 8.47018 -0.0083575 9.849 0.606007C10.17 0.749048 10.3143 1.12525 10.1713 1.44628C10.0282 1.76731 9.65203 1.91159 9.331 1.76855Z" fill="#00E024"/>
<g id="Group 1406">
<path id="Vector (Stroke)_2" fill-rule="evenodd" clip-rule="evenodd" d="M13.8134 1.46255C14.0621 1.71094 14.0623 2.11386 13.8139 2.3625L7.45024 8.73249C7.33092 8.85193 7.16903 8.91906 7.0002 8.91911C6.83137 8.91915 6.66945 8.8521 6.55007 8.73272L4.64098 6.82363C4.39246 6.57511 4.39246 6.17219 4.64098 5.92368C4.88949 5.67516 5.29241 5.67516 5.54093 5.92368L6.99982 7.38256L12.9135 1.46299C13.1619 1.21436 13.5648 1.21415 13.8134 1.46255Z" fill="#00E024"/>
</g>
</g>
</svg>
