<svg width="13" height="16" viewBox="0 0 13 16" fill="none" xmlns="http://www.w3.org/2000/svg">
<g id="Group 1299">
<path id="Vector (Stroke)" fill-rule="evenodd" clip-rule="evenodd" d="M0.605313 0.605313C0.992888 0.217737 1.51855 0 2.06667 0H7.57778C7.76048 0 7.9357 0.0725791 8.0649 0.201771L12.1982 4.3351C12.3274 4.4643 12.4 4.63952 12.4 4.82222V13.0889C12.4 13.637 12.1823 14.1627 11.7947 14.5502C11.4071 14.9378 10.8814 15.1556 10.3333 15.1556H2.06667C1.51855 15.1556 0.992887 14.9378 0.605313 14.5502C0.217737 14.1627 0 13.637 0 13.0889V2.06667C0 1.51855 0.217737 0.992888 0.605313 0.605313ZM2.06667 1.37778C1.88396 1.37778 1.70874 1.45036 1.57955 1.57955C1.45036 1.70874 1.37778 1.88396 1.37778 2.06667V13.0889C1.37778 13.2716 1.45036 13.4468 1.57955 13.576C1.70874 13.7052 1.88396 13.7778 2.06667 13.7778H10.3333C10.516 13.7778 10.6913 13.7052 10.8205 13.576C10.9496 13.4468 11.0222 13.2716 11.0222 13.0889V5.10757L7.29243 1.37778H2.06667Z" fill="#5D7281"/>
<path id="Vector (Stroke)_2" fill-rule="evenodd" clip-rule="evenodd" d="M7.57756 0C7.95802 0 8.26645 0.308426 8.26645 0.688889V4.13333H11.7109C12.0914 4.13333 12.3998 4.44176 12.3998 4.82222C12.3998 5.20269 12.0914 5.51111 11.7109 5.51111H7.57756C7.1971 5.51111 6.88867 5.20269 6.88867 4.82222V0.688889C6.88867 0.308426 7.1971 0 7.57756 0Z" fill="#5D7281"/>
<path id="Vector (Stroke)_3" fill-rule="evenodd" clip-rule="evenodd" d="M6.20012 6.88889C6.58058 6.88889 6.88901 7.19731 6.88901 7.57777V11.7111C6.88901 12.0916 6.58058 12.4 6.20012 12.4C5.81966 12.4 5.51123 12.0916 5.51123 11.7111V7.57777C5.51123 7.19731 5.81966 6.88889 6.20012 6.88889Z" fill="#5D7281"/>
<path id="Vector (Stroke)_4" fill-rule="evenodd" clip-rule="evenodd" d="M3.44434 9.64444C3.44434 9.26398 3.75276 8.95555 4.13322 8.95555H8.26656C8.64702 8.95555 8.95545 9.26398 8.95545 9.64444C8.95545 10.0249 8.64702 10.3333 8.26656 10.3333H4.13322C3.75276 10.3333 3.44434 10.0249 3.44434 9.64444Z" fill="#5D7281"/>
</g>
</svg>
