<svg width="14" height="14" viewBox="0 0 14 14" fill="none" xmlns="http://www.w3.org/2000/svg">
<g id="Group 1180">
<g id="Group 1181">
<path id="Vector (Stroke)" fill-rule="evenodd" clip-rule="evenodd" d="M5.6001 13.3C5.6001 13.6866 5.2867 14 4.9001 14L2.1001 14C1.54314 14 1.009 13.7788 0.615175 13.3849C0.221348 12.9911 9.88402e-05 12.457 9.88889e-05 11.9L9.97456e-05 2.1C9.97943e-05 1.54305 0.22135 1.0089 0.615176 0.615077C1.009 0.22125 1.54314 1.55268e-06 2.1001 1.60137e-06L4.9001 1.84615e-06C5.2867 1.87995e-06 5.6001 0.313402 5.6001 0.700002C5.6001 1.0866 5.2867 1.4 4.9001 1.4L2.1001 1.4C1.91445 1.4 1.7364 1.47375 1.60512 1.60503C1.47385 1.7363 1.4001 1.91435 1.4001 2.1L1.4001 11.9C1.4001 12.0857 1.47385 12.2637 1.60512 12.395C1.7364 12.5263 1.91445 12.6 2.1001 12.6L4.9001 12.6C5.2867 12.6 5.6001 12.9134 5.6001 13.3Z" fill="#5D7281"/>
<path id="Vector (Stroke)_2" fill-rule="evenodd" clip-rule="evenodd" d="M8.89556 10.995C8.62219 11.2684 8.17898 11.2684 7.90561 10.995L4.40561 7.49505C4.13224 7.22168 4.13224 6.77846 4.40561 6.5051L7.90561 3.0051C8.17898 2.73173 8.62219 2.73173 8.89556 3.0051C9.16893 3.27847 9.16893 3.72168 8.89556 3.99505L5.89054 7.00007L8.89556 10.0051C9.16893 10.2785 9.16893 10.7217 8.89556 10.995Z" fill="#5D7281"/>
<path id="Vector (Stroke)_3" fill-rule="evenodd" clip-rule="evenodd" d="M14.0005 7.00007C14.0005 7.38667 13.6871 7.70007 13.3005 7.70007L4.90049 7.70007C4.51389 7.70007 4.20049 7.38667 4.20049 7.00007C4.20049 6.61347 4.51389 6.30007 4.90049 6.30007L13.3005 6.30007C13.6871 6.30007 14.0005 6.61347 14.0005 7.00007Z" fill="#5D7281"/>
</g>
</g>
</svg>
