<svg width="12" height="14" viewBox="0 0 12 14" fill="none" xmlns="http://www.w3.org/2000/svg">
<g id="Group 979">
<path id="Vector (Stroke)" fill-rule="evenodd" clip-rule="evenodd" d="M0.976311 8.99795C1.60143 8.29469 2.44928 7.8996 3.33333 7.8996H8.66667C9.55072 7.8996 10.3986 8.29469 11.0237 8.99795C11.6488 9.70121 12 10.655 12 11.6496V13.1496C12 13.5638 11.7015 13.8996 11.3333 13.8996C10.9651 13.8996 10.6667 13.5638 10.6667 13.1496V11.6496C10.6667 11.0529 10.456 10.4806 10.0809 10.0586C9.70581 9.63665 9.1971 9.3996 8.66667 9.3996H3.33333C2.8029 9.3996 2.29419 9.63665 1.91912 10.0586C1.54405 10.4806 1.33333 11.0529 1.33333 11.6496V13.1496C1.33333 13.5638 1.03486 13.8996 0.666667 13.8996C0.298477 13.8996 0 13.5638 0 13.1496V11.6496C0 10.655 0.351189 9.70121 0.976311 8.99795Z" fill="#5D7281"/>
<path id="Vector (Stroke)_2" fill-rule="evenodd" clip-rule="evenodd" d="M6 1.4C4.8402 1.4 3.9 2.3402 3.9 3.5C3.9 4.6598 4.8402 5.6 6 5.6C7.1598 5.6 8.1 4.6598 8.1 3.5C8.1 2.3402 7.1598 1.4 6 1.4ZM2.5 3.5C2.5 1.567 4.067 0 6 0C7.933 0 9.5 1.567 9.5 3.5C9.5 5.433 7.933 7 6 7C4.067 7 2.5 5.433 2.5 3.5Z" fill="#5D7281"/>
</g>
</svg>
