<svg width="13" height="13" viewBox="0 0 13 13" fill="none" xmlns="http://www.w3.org/2000/svg">
<g id="Group 1140">
<path id="Vector (Stroke)" fill-rule="evenodd" clip-rule="evenodd" d="M5.63066 1.35136C3.26727 1.35136 1.35136 3.26727 1.35136 5.63066C1.35136 7.99405 3.26727 9.90996 5.63066 9.90996C7.99405 9.90996 9.90996 7.99405 9.90996 5.63066C9.90996 3.26727 7.99405 1.35136 5.63066 1.35136ZM0 5.63066C0 2.52093 2.52093 0 5.63066 0C8.74039 0 11.2613 2.52093 11.2613 5.63066C11.2613 8.74039 8.74039 11.2613 5.63066 11.2613C2.52093 11.2613 0 8.74039 0 5.63066Z" fill="#0B4A89"/>
<path id="Vector (Stroke)_2" fill-rule="evenodd" clip-rule="evenodd" d="M8.65249 8.65249C8.91636 8.38862 9.34418 8.38862 9.60805 8.65249L12.3023 11.3468C12.5662 11.6106 12.5662 12.0384 12.3023 12.3023C12.0384 12.5662 11.6106 12.5662 11.3468 12.3023L8.65249 9.60805C8.38862 9.34418 8.38862 8.91636 8.65249 8.65249Z" fill="#0B4A89"/>
</g>
</svg>
