<svg width="12" height="13" viewBox="0 0 12 13" fill="none" xmlns="http://www.w3.org/2000/svg">
<g id="Group 1152">
<g id="Group 1151">
<path id="Vector (Stroke)" fill-rule="evenodd" clip-rule="evenodd" d="M0 2.81883C0 2.5075 0.252376 2.25513 0.563698 2.25513H10.7103C11.0216 2.25513 11.274 2.5075 11.274 2.81883C11.274 3.13015 11.0216 3.38252 10.7103 3.38252H0.563698C0.252376 3.38252 0 3.13015 0 2.81883Z" fill="#ED0000"/>
<path id="Vector (Stroke)_2" fill-rule="evenodd" clip-rule="evenodd" d="M4.51061 1.1274C4.36111 1.1274 4.21773 1.18679 4.11201 1.2925C4.0063 1.39821 3.94691 1.54159 3.94691 1.6911V2.81849C3.94691 3.12981 3.69453 3.38219 3.38321 3.38219C3.07189 3.38219 2.81951 3.12981 2.81951 2.81849V1.6911C2.81951 1.24259 2.99768 0.812452 3.31482 0.49531C3.63197 0.178168 4.0621 0 4.51061 0H6.7654C7.21391 0 7.64405 0.178168 7.96119 0.49531C8.27833 0.812452 8.4565 1.24259 8.4565 1.6911V2.81849C8.4565 3.12981 8.20412 3.38219 7.8928 3.38219C7.58148 3.38219 7.3291 3.12981 7.3291 2.81849V1.6911C7.3291 1.54159 7.26971 1.39821 7.164 1.2925C7.05828 1.18679 6.91491 1.1274 6.7654 1.1274H4.51061ZM1.69212 2.25479C2.00344 2.25479 2.25582 2.50717 2.25582 2.81849V10.7103C2.25582 10.8598 2.3152 11.0032 2.42092 11.1089C2.52663 11.2146 2.67001 11.274 2.81951 11.274H8.4565C8.606 11.274 8.74938 11.2146 8.85509 11.1089C8.96081 11.0032 9.0202 10.8598 9.0202 10.7103V2.81849C9.0202 2.50717 9.27257 2.25479 9.5839 2.25479C9.89522 2.25479 10.1476 2.50717 10.1476 2.81849V10.7103C10.1476 11.1588 9.96943 11.5889 9.65228 11.9061C9.33514 12.2232 8.90501 12.4014 8.4565 12.4014H2.81951C2.37101 12.4014 1.94087 12.2232 1.62373 11.9061C1.30659 11.5889 1.12842 11.1588 1.12842 10.7103V2.81849C1.12842 2.50717 1.38079 2.25479 1.69212 2.25479Z" fill="#ED0000"/>
<path id="Vector (Stroke)_3" fill-rule="evenodd" clip-rule="evenodd" d="M4.51023 5.07373C4.82155 5.07373 5.07393 5.32611 5.07393 5.63743V9.01962C5.07393 9.33094 4.82155 9.58332 4.51023 9.58332C4.19891 9.58332 3.94653 9.33094 3.94653 9.01962V5.63743C3.94653 5.32611 4.19891 5.07373 4.51023 5.07373Z" fill="#ED0000"/>
<path id="Vector (Stroke)_4" fill-rule="evenodd" clip-rule="evenodd" d="M6.76463 5.07373C7.07595 5.07373 7.32832 5.32611 7.32832 5.63743V9.01962C7.32832 9.33094 7.07595 9.58332 6.76463 9.58332C6.4533 9.58332 6.20093 9.33094 6.20093 9.01962V5.63743C6.20093 5.32611 6.4533 5.07373 6.76463 5.07373Z" fill="#ED0000"/>
</g>
</g>
</svg>
