<svg width="24" height="30" viewBox="0 0 24 30" fill="none" xmlns="http://www.w3.org/2000/svg">
<g id="Group 1390">
<path id="Vector (Stroke)" fill-rule="evenodd" clip-rule="evenodd" d="M1.17157 1.1982C1.92172 0.431005 2.93913 0 4 0H14.6667C15.0203 0 15.3594 0.143668 15.6095 0.3994L23.6095 8.58122C23.8595 8.83695 24 9.1838 24 9.54545V25.9091C24 26.9941 23.5786 28.0346 22.8284 28.8018C22.0783 29.569 21.0609 30 20 30H4C2.93913 30 1.92172 29.569 1.17157 28.8018C0.421427 28.0346 0 26.9941 0 25.9091V4.09091C0 3.00593 0.421427 1.96539 1.17157 1.1982ZM4 2.72727C3.64638 2.72727 3.30724 2.87094 3.05719 3.12667C2.80714 3.3824 2.66667 3.72925 2.66667 4.09091V25.9091C2.66667 26.2708 2.80714 26.6176 3.05719 26.8733C3.30724 27.1291 3.64638 27.2727 4 27.2727H20C20.3536 27.2727 20.6928 27.1291 20.9428 26.8733C21.1929 26.6176 21.3333 26.2707 21.3333 25.9091V10.1103L14.1144 2.72727H4Z" fill="#0B4A89"/>
<path id="Vector (Stroke)_2" fill-rule="evenodd" clip-rule="evenodd" d="M13.25 0C13.9404 0 14.5 0.671573 14.5 1.5V9H20.75C21.4404 9 22 9.67157 22 10.5C22 11.3284 21.4404 12 20.75 12H13.25C12.5596 12 12 11.3284 12 10.5V1.5C12 0.671573 12.5596 0 13.25 0Z" fill="#0B4A89"/>
<path id="Vector (Stroke)_3" fill-rule="evenodd" clip-rule="evenodd" d="M4 17C4 16.4477 4.6268 16 5.4 16H16.6C17.3732 16 18 16.4477 18 17C18 17.5523 17.3732 18 16.6 18H5.4C4.6268 18 4 17.5523 4 17Z" fill="#0B4A89"/>
<path id="Vector (Stroke)_4" fill-rule="evenodd" clip-rule="evenodd" d="M4 21C4 20.4477 4.6268 20 5.4 20H16.6C17.3732 20 18 20.4477 18 21C18 21.5523 17.3732 22 16.6 22H5.4C4.6268 22 4 21.5523 4 21Z" fill="#0B4A89"/>
<path id="Vector (Stroke)_5" fill-rule="evenodd" clip-rule="evenodd" d="M4 13C4 12.4477 4.67157 12 5.5 12H8.5C9.32843 12 10 12.4477 10 13C10 13.5523 9.32843 14 8.5 14H5.5C4.67157 14 4 13.5523 4 13Z" fill="#0B4A89"/>
</g>
</svg>
