<svg width="23" height="16" viewBox="0 0 23 16" fill="none" xmlns="http://www.w3.org/2000/svg">
<g id="Group 1373">
<g id="Group 1372">
<g id="Group 1370">
<g id="Group 1368">
<g id="Group 1367">
<g id="Group 1366">
<g id="Group 1365">
<g id="Group 1364">
<line id="Line 14" x1="0.85" y1="15.195" x2="0.85001" y2="-6.67615e-06" stroke="#9D9D9D" stroke-width="0.3"/>
</g>
</g>
</g>
</g>
</g>
</g>
</g>
<g id="Group 1371">
<g id="Group 1370_2">
<g id="Group 1369">
<g id="Group 1368_2">
<g id="Group 1367_2">
<g id="Group 1366_2">
<g id="Group 1365_2">
<g id="Group 1364_2">
<g id="&#240;&#159;&#166;&#134; icon &#34;copy&#34;">
<path id="Vector" d="M9.16406 2.54765C9.16406 2.1807 9.30983 1.82878 9.56931 1.56931C9.82878 1.30983 10.1807 1.16406 10.5477 1.16406H17.4656C17.8325 1.16406 18.1845 1.30983 18.4439 1.56931C18.7034 1.82878 18.8492 2.1807 18.8492 2.54765V5.31483H21.6164C21.9833 5.31483 22.3352 5.4606 22.5947 5.72007C22.8542 5.97954 22.9999 6.33146 22.9999 6.69841V13.6164C22.9999 13.9833 22.8542 14.3352 22.5947 14.5947C22.3352 14.8542 21.9833 14.9999 21.6164 14.9999H14.6984C14.3315 14.9999 13.9795 14.8542 13.7201 14.5947C13.4606 14.3352 13.3148 13.9833 13.3148 13.6164V10.8492H10.5477C10.1807 10.8492 9.82878 10.7034 9.56931 10.4439C9.30983 10.1845 9.16406 9.83254 9.16406 9.46559V2.54765ZM14.6984 10.8492V13.6164H21.6164V6.69841H18.8492V9.46559C18.8492 9.83254 18.7034 10.1845 18.4439 10.4439C18.1845 10.7034 17.8325 10.8492 17.4656 10.8492H14.6984ZM17.4656 9.46559V2.54765H10.5477V9.46559H17.4656Z" fill="#0B4A89"/>
</g>
</g>
</g>
</g>
</g>
</g>
</g>
</g>
</g>
</g>
</svg>
