<svg width="13" height="10" viewBox="0 0 13 10" fill="none" xmlns="http://www.w3.org/2000/svg">
<path id="Vector" d="M12.9464 4.73368C12.9245 4.77752 12.3982 5.81814 11.3532 6.86312C8.4878 9.72859 4.51615 9.73246 1.64682 6.86312C0.601837 5.81814 0.0754775 4.77752 0.0535583 4.73368C-0.0178528 4.59076 -0.0178528 4.42245 0.0535583 4.27953C0.0754775 4.23569 0.601837 3.19507 1.64682 2.15009C4.51229 -0.715378 8.48383 -0.719246 11.3532 2.15009C12.3982 3.19507 12.9245 4.23569 12.9464 4.27953C13.0178 4.42245 13.0178 4.59076 12.9464 4.73368ZM10.635 2.86827C8.21188 0.44515 4.89602 0.35668 2.38682 2.84655C1.72517 3.50303 1.28966 4.16904 1.08922 4.50715C1.28619 4.8402 1.71178 5.49173 2.365 6.14494C4.78266 8.5626 8.09901 8.66149 10.6133 6.16666C11.275 5.51008 11.7105 4.84387 11.9108 4.50616C11.7138 4.17311 11.2882 3.52148 10.635 2.86827ZM6.49999 7.01179C5.11859 7.01179 3.99475 5.88796 3.99475 4.50665C3.99475 3.12525 5.11859 2.00142 6.49999 2.00142C7.8814 2.00142 9.00523 3.12525 9.00523 4.50665C9.00523 5.88796 7.8814 7.01179 6.49999 7.01179ZM6.49999 3.01704C5.67867 3.01704 5.01038 3.68533 5.01038 4.50665C5.01038 5.32798 5.67867 5.99617 6.49999 5.99617C7.32132 5.99617 7.98961 5.32798 7.98961 4.50665C7.98961 3.68523 7.32132 3.01704 6.49999 3.01704Z" fill="#0B4A89"/>
</svg>
