<svg width="17" height="16" viewBox="0 0 17 16" fill="none" xmlns="http://www.w3.org/2000/svg">
<g id="Group 1299">
<g id="Group 1355">
<path id="Vector (Stroke)" fill-rule="evenodd" clip-rule="evenodd" d="M8.14822 1.45455C4.46629 1.45455 1.48149 4.38505 1.48149 8C1.48149 11.615 4.46629 14.5455 8.14822 14.5455C11.8301 14.5455 14.8149 11.615 14.8149 8C14.8149 4.38505 11.8301 1.45455 8.14822 1.45455ZM0 8C0 3.58172 3.64808 0 8.14822 0C12.6484 0 16.2964 3.58172 16.2964 8C16.2964 12.4183 12.6484 16 8.14822 16C3.64808 16 0 12.4183 0 8Z" fill="#0B4A89"/>
<path id="Vector (Stroke)_2" fill-rule="evenodd" clip-rule="evenodd" d="M8.14797 2.90918C8.55708 2.90918 8.88872 3.23479 8.88872 3.63645V7.55061L11.4422 8.80414C11.8081 8.98377 11.9565 9.42062 11.7735 9.77988C11.5906 10.1391 11.1456 10.2848 10.7797 10.1051L7.8167 8.65058C7.56575 8.52739 7.40723 8.27556 7.40723 8.00009V3.63645C7.40723 3.23479 7.73887 2.90918 8.14797 2.90918Z" fill="#0B4A89"/>
</g>
</g>
</svg>
