<svg width="16" height="15" viewBox="0 0 16 15" fill="none" xmlns="http://www.w3.org/2000/svg">
<g id="Group 981">
<path id="Vector (Stroke)" fill-rule="evenodd" clip-rule="evenodd" d="M0.976533 9.86515C1.60164 9.22163 2.44947 8.86011 3.3335 8.86011H8.66672C9.55075 8.86011 10.3986 9.22163 11.0237 9.86515C11.6488 10.5087 12 11.3815 12 12.2915V13.6641C12 14.0431 11.7015 14.3504 11.3333 14.3504C10.9651 14.3504 10.6667 14.0431 10.6667 13.6641V12.2915C10.6667 11.7455 10.456 11.2218 10.0809 10.8357C9.70584 10.4496 9.19714 10.2327 8.66672 10.2327H3.3335C2.80308 10.2327 2.29439 10.4496 1.91932 10.8357C1.54426 11.2218 1.33355 11.7455 1.33355 12.2915V13.6641C1.33355 14.0431 1.03508 14.3504 0.666896 14.3504C0.298714 14.3504 0.000244141 14.0431 0.000244141 13.6641V12.2915C0.000244141 11.3815 0.351426 10.5087 0.976533 9.86515Z" fill="#5D7281"/>
<path id="Vector (Stroke)_2" fill-rule="evenodd" clip-rule="evenodd" d="M5.9994 1.9972C4.89485 1.9972 3.99944 2.91898 3.99944 4.05605C3.99944 5.19312 4.89485 6.1149 5.9994 6.1149C7.10394 6.1149 7.99935 5.19312 7.99935 4.05605C7.99935 2.91898 7.10394 1.9972 5.9994 1.9972ZM2.66614 4.05605C2.66614 2.16093 4.15849 0.624634 5.9994 0.624634C7.84031 0.624634 9.33266 2.16093 9.33266 4.05605C9.33266 5.95117 7.84031 7.48747 5.9994 7.48747C4.15849 7.48747 2.66614 5.95117 2.66614 4.05605Z" fill="#5D7281"/>
<path id="Vector (Stroke)_3" fill-rule="evenodd" clip-rule="evenodd" d="M12.6882 9.46337C12.7802 9.09638 13.1439 8.87569 13.5003 8.97044C14.2154 9.16052 14.849 9.58969 15.3014 10.1906C15.7539 10.7915 15.9997 11.53 16.0003 12.2903L16.0003 13.6634C16.0003 14.0424 15.7018 14.3497 15.3336 14.3497C14.9655 14.3497 14.667 14.0424 14.667 13.6634V12.2914C14.667 12.2913 14.667 12.2914 14.667 12.2914C14.6666 11.8353 14.5191 11.392 14.2477 11.0315C13.9762 10.671 13.5961 10.4135 13.167 10.2994C12.8105 10.2047 12.5962 9.83035 12.6882 9.46337Z" fill="#5D7281"/>
<path id="Vector (Stroke)_4" fill-rule="evenodd" clip-rule="evenodd" d="M6.02093 1.23033C6.11226 0.863155 6.47543 0.64171 6.83211 0.735723C7.5491 0.924709 8.18461 1.35398 8.63843 1.95586C9.09226 2.55774 9.33859 3.29799 9.33859 4.05991C9.33859 4.82183 9.09226 5.56208 8.63843 6.16396C8.18461 6.76584 7.5491 7.19511 6.83211 7.38409C6.47543 7.47811 6.11226 7.25666 6.02093 6.88948C5.92961 6.5223 6.14472 6.14843 6.5014 6.05442C6.93159 5.94103 7.3129 5.68347 7.58519 5.32234C7.85749 4.96121 8.00528 4.51706 8.00528 4.05991C8.00528 3.60276 7.85749 3.15861 7.58519 2.79748C7.3129 2.43635 6.93159 2.17879 6.5014 2.0654C6.14472 1.97138 5.92961 1.59751 6.02093 1.23033Z" fill="#5D7281"/>
</g>
</svg>
