<svg width="12" height="15" viewBox="0 0 12 15" fill="none" xmlns="http://www.w3.org/2000/svg">
<path d="M9.75 5.45455V3.40909C9.75 2.50494 9.35491 1.63783 8.65165 0.9985C7.94839 0.359171 6.99456 0 6 0C5.00544 0 4.05161 0.359171 3.34835 0.9985C2.64509 1.63783 2.25 2.50494 2.25 3.40909V5.45455C1.65326 5.45455 1.08097 5.67005 0.65901 6.05365C0.237053 6.43724 0 6.95751 0 7.5V12.9545C0 13.497 0.237053 14.0173 0.65901 14.4009C1.08097 14.7845 1.65326 15 2.25 15H9.75C10.3467 15 10.919 14.7845 11.341 14.4009C11.7629 14.0173 12 13.497 12 12.9545V7.5C12 6.95751 11.7629 6.43724 11.341 6.05365C10.919 5.67005 10.3467 5.45455 9.75 5.45455ZM3.75 3.40909C3.75 2.8666 3.98705 2.34633 4.40901 1.96274C4.83097 1.57914 5.40326 1.36364 6 1.36364C6.59674 1.36364 7.16903 1.57914 7.59099 1.96274C8.01295 2.34633 8.25 2.8666 8.25 3.40909V5.45455H3.75V3.40909ZM10.5 12.9545C10.5 13.1354 10.421 13.3088 10.2803 13.4367C10.1397 13.5645 9.94891 13.6364 9.75 13.6364H2.25C2.05109 13.6364 1.86032 13.5645 1.71967 13.4367C1.57902 13.3088 1.5 13.1354 1.5 12.9545V7.5C1.5 7.31917 1.57902 7.14575 1.71967 7.01788C1.86032 6.89002 2.05109 6.81818 2.25 6.81818H9.75C9.94891 6.81818 10.1397 6.89002 10.2803 7.01788C10.421 7.14575 10.5 7.31917 10.5 7.5V12.9545ZM5.25 8.86364H6.75V11.5909H5.25V8.86364Z" fill="#0B4A89"/>
</svg>
