<svg width="16" height="10" viewBox="0 0 16 10" fill="none" xmlns="http://www.w3.org/2000/svg">
<g id="Group 1037">
<path id="Vector (Stroke)" fill-rule="evenodd" clip-rule="evenodd" d="M2.3999 5C2.3999 4.44772 2.75807 4 3.1999 4H12.7999C13.2417 4 13.5999 4.44772 13.5999 5C13.5999 5.55228 13.2417 6 12.7999 6H3.1999C2.75807 6 2.3999 5.55228 2.3999 5Z" fill="#5D7281"/>
<path id="Vector (Stroke)_2" fill-rule="evenodd" clip-rule="evenodd" d="M0 1C0 0.447715 0.358172 0 0.8 0H15.2C15.6418 0 16 0.447715 16 1C16 1.55228 15.6418 2 15.2 2H0.8C0.358172 2 0 1.55228 0 1Z" fill="#5D7281"/>
<path id="Vector (Stroke)_3" fill-rule="evenodd" clip-rule="evenodd" d="M4 9C4 8.44772 4.35817 8 4.8 8H11.2C11.6418 8 12 8.44772 12 9C12 9.55228 11.6418 10 11.2 10H4.8C4.35817 10 4 9.55228 4 9Z" fill="#5D7281"/>
</g>
</svg>
