<svg width="13" height="13" viewBox="0 0 13 13" fill="none" xmlns="http://www.w3.org/2000/svg">
<path id="Vector" d="M11.1065 4.09925C10.8421 3.84996 10.5746 3.62109 10.3054 3.41279L12.8513 0.866893C13.0496 0.668592 13.0496 0.347045 12.8513 0.148745C12.6529 -0.0495815 12.3314 -0.0495815 12.1331 0.148745L9.45428 2.82758C8.55416 2.28605 7.5545 1.92969 6.50001 1.92969C4.75509 1.92969 3.16439 2.90122 1.89351 4.09925C0.784196 5.14501 0.109542 6.18072 0.0813833 6.22429C-0.0271108 6.3921 -0.0271108 6.60792 0.0813833 6.77572C0.109542 6.81929 0.784196 7.855 1.89351 8.90077C2.15796 9.15005 2.42542 9.37892 2.69464 9.58723L0.148745 12.1331C-0.0495815 12.3314 -0.0495815 12.653 0.148745 12.8513C0.347045 13.0496 0.668567 13.0496 0.866893 12.8513L3.54573 10.1724C4.44588 10.714 5.44551 11.0703 6.50001 11.0703C8.24493 11.0703 9.83562 10.0988 11.1065 8.90077C12.2158 7.855 12.8905 6.81929 12.9186 6.77572C13.0271 6.60792 13.0271 6.3921 12.9186 6.22429C12.8905 6.18072 12.2158 5.14501 11.1065 4.09925ZM1.12776 6.49963C1.76996 5.62037 3.93512 2.94532 6.50001 2.94532C7.28435 2.94532 8.03208 3.19707 8.71064 3.57122L7.89939 4.38248C7.49788 4.11626 7.01678 3.96094 6.50001 3.96094C5.09997 3.96094 3.96094 5.09997 3.96094 6.50001C3.96094 7.01678 4.11626 7.49788 4.38248 7.89939L3.41979 8.86207C2.31451 8.03124 1.48526 6.98784 1.12776 6.49963ZM8.02344 6.50001C8.02344 7.34003 7.34003 8.02344 6.50001 8.02344C6.26509 8.02344 6.04249 7.96992 5.84361 7.87455L7.87458 5.84358C7.96992 6.04249 8.02344 6.26509 8.02344 6.50001ZM4.97657 6.50001C4.97657 5.65998 5.65998 4.97657 6.50001 4.97657C6.73492 4.97657 6.95752 5.03009 7.1564 5.12546L5.12543 7.15643C5.03009 6.95752 4.97657 6.73492 4.97657 6.50001ZM6.50001 10.0547C5.71566 10.0547 4.96794 9.80295 4.28937 9.42879L5.10063 8.61753C5.50213 8.88375 5.98323 9.03907 6.50001 9.03907C7.90005 9.03907 9.03907 7.90005 9.03907 6.50001C9.03907 5.98323 8.88375 5.50213 8.61753 5.10063L9.58022 4.13794C10.6854 4.9687 11.5146 6.012 11.8723 6.50041C11.2301 7.37964 9.06489 10.0547 6.50001 10.0547Z" fill="#0B4A89"/>
</svg>
