<svg width="22" height="14" viewBox="0 0 22 14" fill="none" xmlns="http://www.w3.org/2000/svg">
<g id="BOLETO-ICON 1" clip-path="url(#clip0_688_1405)">
<g id="Group">
<path id="Vector" d="M22 13.9667C21.3437 14.0333 21.3437 14.0333 21.3437 13.4171C21.3437 9.08722 21.3437 4.75733 21.3437 0.42743C21.3437 0.355265 21.3494 0.288651 21.3437 0.216486C21.3266 0.0499516 21.4065 -0.011111 21.572 0.00554242C21.7147 0.0166447 21.8573 0.0166447 22 0.0221959C22 4.66851 22 9.32037 22 13.9667Z" fill="white"/>
<path id="Vector_2" d="M10.6376 7C10.6376 9.22601 10.6376 11.452 10.6376 13.678C10.6376 13.9833 10.6376 13.9833 10.318 13.9833C9.26227 13.9833 8.2008 13.9778 7.14502 13.9889C6.94528 13.9889 6.87109 13.9389 6.87109 13.7335C6.8768 9.23711 6.8768 4.74623 6.87109 0.249802C6.87109 0.0555115 6.93387 0 7.1279 0C8.2065 0.00555115 9.2851 0.0111023 10.3694 0C10.592 0 10.6433 0.0721649 10.6433 0.277557C10.6376 2.51467 10.6376 4.75734 10.6376 7Z" fill="white"/>
<path id="Vector_3" d="M18.7072 7C18.7072 9.22601 18.7072 11.452 18.7072 13.678C18.7072 13.9833 18.7072 13.9833 18.4047 13.9833C17.737 13.9833 17.075 13.9778 16.4073 13.9889C16.2076 13.9945 16.1505 13.9223 16.1505 13.7335C16.1562 9.23711 16.1562 4.74068 16.1505 0.249803C16.1505 0.0499616 16.2247 1.27606e-06 16.413 1.27606e-06C17.0864 0.0111036 17.7599 0.0111036 18.4276 1.27606e-06C18.6501 -0.00554987 18.7072 0.0721662 18.7072 0.277559C18.7015 2.51467 18.7072 4.75734 18.7072 7Z" fill="white"/>
<path id="Vector_4" d="M2.52245 6.9944C2.52245 9.22596 2.52245 11.4631 2.52245 13.6946C2.52245 13.9833 2.52245 13.9833 2.2314 13.9833C1.58652 13.9833 0.941648 13.9833 0.302478 13.9833C0.0114275 13.9833 0.00572062 13.9833 0.00572062 13.6946C0.00572062 9.79773 0.00572062 5.90082 0.00572062 2.00392C0.00572062 1.43215 0.0114275 0.854827 1.37482e-05 0.277508C-0.00569313 0.0665639 0.0513756 -0.00560109 0.273944 -4.99442e-05C0.930234 0.0110524 1.59223 0.0110524 2.24852 -4.99442e-05C2.46538 -0.00560109 2.52816 0.0610127 2.52816 0.271956C2.52245 2.51462 2.52245 4.75173 2.52245 6.9944Z" fill="white"/>
<path id="Vector_5" d="M5.31309 6.99445C5.31309 9.22601 5.31309 11.4631 5.31309 13.6947C5.31309 13.9833 5.31309 13.9833 5.02204 13.9833C4.74811 13.9833 4.47989 13.9778 4.20596 13.9833C4.069 13.9889 4.00622 13.9278 4.01193 13.8002C4.01193 13.7391 4.01193 13.6725 4.01193 13.6114C4.01193 9.19825 4.01193 4.79064 4.01193 0.377474C4.01193 0.321963 4.01763 0.266451 4.01193 0.21094C4.00051 0.0666097 4.06329 -4.10294e-06 4.22308 0.00554705C4.50842 0.0166493 4.79377 0.0166493 5.07911 0.00554705C5.25603 -4.10294e-06 5.3188 0.0610585 5.31309 0.233144C5.30739 0.83822 5.31309 1.44329 5.31309 2.04837C5.31309 3.69706 5.31309 5.34575 5.31309 6.99445Z" fill="white"/>
<path id="Vector_6" d="M13.0403 6.99445C13.0403 9.22601 13.0403 11.4631 13.0403 13.6947C13.0403 13.9833 13.0403 13.9833 12.7435 13.9833C12.4696 13.9833 12.2014 13.9778 11.9274 13.9833C11.7905 13.9889 11.7277 13.9334 11.7334 13.8002C11.7334 13.7391 11.7334 13.6725 11.7334 13.6114C11.7334 9.19826 11.7334 4.79064 11.7334 0.377478C11.7334 0.305313 11.7334 0.238699 11.7334 0.166535C11.7334 0.0555115 11.779 0 11.8989 0C12.2185 0.00555115 12.5438 0 12.8634 0C12.9775 0 13.0346 0.0444092 13.0346 0.160983C13.0346 0.233148 13.0346 0.299762 13.0346 0.371927C13.0403 2.58128 13.0403 4.78509 13.0403 6.99445Z" fill="white"/>
<path id="Vector_7" d="M15.2146 7.00555C15.2146 9.22046 15.2146 11.4298 15.2146 13.6447C15.2146 13.9833 15.2146 13.9833 14.8608 13.9833C14.6097 13.9833 14.3586 13.9778 14.1075 13.9833C13.9705 13.9889 13.9077 13.9334 13.9134 13.8002C13.9191 13.7335 13.9134 13.6614 13.9134 13.5892C13.9134 9.1927 13.9134 4.79064 13.9134 0.394131C13.9134 0.321966 13.9191 0.255352 13.9134 0.183187C13.9077 0.0555105 13.9705 -9.69041e-07 14.1075 0.00555018C14.4156 0.0111013 14.7238 0.0111013 15.032 0.00555018C15.1632 0.00555018 15.2146 0.0555105 15.2146 0.177636C15.2146 0.249801 15.2146 0.316415 15.2146 0.38858C15.2146 2.59239 15.2146 4.79619 15.2146 7.00555Z" fill="white"/>
<path id="Vector_8" d="M19.1979 6.99445C19.1979 4.76289 19.1979 2.52577 19.1979 0.294208C19.1979 0.0110998 19.1979 0.0055486 19.4947 0.0055486C19.7515 0.0055486 20.0083 0.0110998 20.2651 0.0055486C20.4249 -2.54624e-06 20.4877 0.0610601 20.4706 0.210941C20.4649 0.249799 20.4706 0.294208 20.4706 0.338618C20.4706 4.77954 20.4706 9.21491 20.4706 13.6558C20.4706 13.9833 20.4706 13.9833 20.1339 13.9833C19.8999 13.9833 19.6602 13.9722 19.4262 13.9833C19.2436 13.9944 19.1922 13.9223 19.1979 13.7557C19.2036 12.6788 19.1979 11.5964 19.1979 10.5194C19.1979 9.34258 19.1979 8.16574 19.1979 6.99445Z" fill="white"/>
</g>
</g>
<defs>
<clipPath id="clip0_688_1405">
<rect width="22" height="14" fill="white"/>
</clipPath>
</defs>
</svg>
