<svg width="11" height="16" viewBox="0 0 11 16" fill="none" xmlns="http://www.w3.org/2000/svg">
<g id="Group 1357">
<g id="Group 1356">
<g id="&#240;&#159;&#166;&#134; icon &#34;award&#34;">
<g id="Group 1355">
<path id="Vector (Stroke)" fill-rule="evenodd" clip-rule="evenodd" d="M5.5 1.33333C3.22183 1.33333 1.375 3.12419 1.375 5.33333C1.375 7.54247 3.22183 9.33333 5.5 9.33333C7.77817 9.33333 9.625 7.54247 9.625 5.33333C9.625 3.12419 7.77817 1.33333 5.5 1.33333ZM0 5.33333C0 2.38781 2.46243 0 5.5 0C8.53757 0 11 2.38781 11 5.33333C11 8.27884 8.53757 10.6667 5.5 10.6667C2.46243 10.6667 0 8.27884 0 5.33333Z" fill="#0B4A89"/>
<path id="Vector (Stroke)_2" fill-rule="evenodd" clip-rule="evenodd" d="M8.01522 8.59248C8.39162 8.54405 8.73723 8.80068 8.78717 9.16567L9.61904 15.2457C9.65376 15.4994 9.53558 15.75 9.31494 15.8906C9.0943 16.0311 8.81016 16.0367 8.5838 15.905L5.50002 14.1108L2.41623 15.905C2.18986 16.0367 1.9057 16.0311 1.68505 15.8905C1.46441 15.75 1.34624 15.4993 1.381 15.2456L2.21288 9.17224C2.26287 8.80726 2.60852 8.55068 2.98491 8.59916C3.3613 8.64763 3.6259 8.98281 3.57591 9.34779L2.93182 14.0501L5.1463 12.7617C5.36402 12.635 5.63601 12.635 5.85373 12.7617L8.06844 14.0502L7.42411 9.34103C7.37418 8.97604 7.63882 8.6409 8.01522 8.59248Z" fill="#0B4A89"/>
</g>
</g>
</g>
</g>
</svg>
