<svg width="17" height="14" viewBox="0 0 17 14" fill="none" xmlns="http://www.w3.org/2000/svg">
<g id="Group 990">
<g id="Group 988">
<path id="Vector (Stroke)" fill-rule="evenodd" clip-rule="evenodd" d="M14 3C14.4142 3 14.75 3.33579 14.75 3.75V8.25C14.75 8.66421 14.4142 9 14 9C13.5858 9 13.25 8.66421 13.25 8.25V3.75C13.25 3.33579 13.5858 3 14 3Z" fill="#5D7281"/>
<g id="Group 987">
<path id="Vector (Stroke)_2" fill-rule="evenodd" clip-rule="evenodd" d="M11 6C11 5.58579 11.3358 5.25 11.75 5.25H16.25C16.6642 5.25 17 5.58579 17 6C17 6.41421 16.6642 6.75 16.25 6.75H11.75C11.3358 6.75 11 6.41421 11 6Z" fill="#5D7281"/>
</g>
</g>
<g id="Group 984">
<path id="Vector (Stroke)_3" fill-rule="evenodd" clip-rule="evenodd" d="M0.976533 8.97626C1.60164 8.35115 2.44947 7.99997 3.3335 7.99997H8.66672C9.55075 7.99997 10.3986 8.35115 11.0237 8.97626C11.6488 9.60137 12 10.4492 12 11.3332V12.6665C12 13.0347 11.7015 13.3332 11.3333 13.3332C10.9651 13.3332 10.6667 13.0347 10.6667 12.6665V11.3332C10.6667 10.8028 10.456 10.2941 10.0809 9.91905C9.70584 9.54398 9.19714 9.33327 8.66672 9.33327H3.3335C2.80308 9.33327 2.29439 9.54398 1.91932 9.91905C1.54426 10.2941 1.33355 10.8028 1.33355 11.3332V12.6665C1.33355 13.0347 1.03508 13.3332 0.666896 13.3332C0.298714 13.3332 0.000244141 13.0347 0.000244141 12.6665V11.3332C0.000244141 10.4492 0.351426 9.60137 0.976533 8.97626Z" fill="#5D7281"/>
<path id="Vector (Stroke)_4" fill-rule="evenodd" clip-rule="evenodd" d="M5.9994 1.33349C4.89485 1.33349 3.99944 2.2289 3.99944 3.33344C3.99944 4.43799 4.89485 5.3334 5.9994 5.3334C7.10394 5.3334 7.99935 4.43799 7.99935 3.33344C7.99935 2.2289 7.10394 1.33349 5.9994 1.33349ZM2.66614 3.33344C2.66614 1.49253 4.15849 0.000183105 5.9994 0.000183105C7.84031 0.000183105 9.33266 1.49253 9.33266 3.33344C9.33266 5.17435 7.84031 6.6667 5.9994 6.6667C4.15849 6.6667 2.66614 5.17435 2.66614 3.33344Z" fill="#5D7281"/>
</g>
</g>
</svg>
