<svg width="22" height="14" viewBox="0 0 22 14" fill="none" xmlns="http://www.w3.org/2000/svg">
<g id="BOLETO-ICON 1" clip-path="url(#clip0_902_2850)">
<g id="Group">
<path id="Vector" d="M21.9999 13.9667C21.3436 14.0333 21.3436 14.0333 21.3436 13.4172C21.3436 9.08725 21.3436 4.75736 21.3436 0.42746C21.3436 0.355295 21.3493 0.288682 21.3436 0.216517C21.3265 0.0499821 21.4064 -0.0110805 21.5719 0.00557294C21.7145 0.0166752 21.8572 0.0166752 21.9999 0.0222264C21.9999 4.66854 21.9999 9.3204 21.9999 13.9667Z" fill="#5D7281"/>
<path id="Vector_2" d="M10.6376 7C10.6376 9.22601 10.6376 11.452 10.6376 13.678C10.6376 13.9833 10.6376 13.9833 10.318 13.9833C9.26227 13.9833 8.2008 13.9778 7.14502 13.9889C6.94528 13.9889 6.87109 13.9389 6.87109 13.7335C6.8768 9.23711 6.8768 4.74623 6.87109 0.249802C6.87109 0.0555115 6.93387 0 7.1279 0C8.2065 0.00555115 9.2851 0.0111023 10.3694 0C10.592 0 10.6433 0.0721649 10.6433 0.277557C10.6376 2.51467 10.6376 4.75734 10.6376 7Z" fill="#5D7281"/>
<path id="Vector_3" d="M18.7071 7.00003C18.7071 9.22604 18.7071 11.4521 18.7071 13.6781C18.7071 13.9834 18.7071 13.9834 18.4046 13.9834C17.7369 13.9834 17.0749 13.9778 16.4072 13.9889C16.2075 13.9945 16.1504 13.9223 16.1504 13.7336C16.1561 9.23715 16.1561 4.74071 16.1504 0.249834C16.1504 0.0499921 16.2246 3.17936e-05 16.4129 3.17936e-05C17.0863 0.0111341 17.7597 0.0111341 18.4274 3.17936e-05C18.65 -0.00551936 18.7071 0.0721968 18.7071 0.277589C18.7014 2.5147 18.7071 4.75737 18.7071 7.00003Z" fill="#5D7281"/>
<path id="Vector_4" d="M2.52233 6.99452C2.52233 9.22608 2.52233 11.4632 2.52233 13.6948C2.52233 13.9834 2.52233 13.9834 2.23128 13.9834C1.5864 13.9834 0.941526 13.9834 0.302356 13.9834C0.0113054 13.9834 0.00559855 13.9834 0.00559855 13.6948C0.00559855 9.79785 0.00559855 5.90094 0.00559855 2.00404C0.00559855 1.43227 0.0113054 0.854949 -0.000108322 0.27763C-0.0058152 0.0666859 0.0512535 -0.00547902 0.273822 7.21262e-05C0.930112 0.0111744 1.59211 0.0111744 2.2484 7.21262e-05C2.46526 -0.00547902 2.52804 0.0611348 2.52804 0.272078C2.52233 2.51474 2.52233 4.75186 2.52233 6.99452Z" fill="#5D7281"/>
<path id="Vector_5" d="M5.31322 6.99461C5.31322 9.22618 5.31322 11.4633 5.31322 13.6949C5.31322 13.9835 5.31322 13.9835 5.02217 13.9835C4.74824 13.9835 4.48001 13.978 4.20608 13.9835C4.06912 13.9891 4.00634 13.928 4.01205 13.8003C4.01205 13.7393 4.01205 13.6726 4.01205 13.6116C4.01205 9.19842 4.01205 4.79081 4.01205 0.377642C4.01205 0.32213 4.01776 0.266619 4.01205 0.211107C4.00064 0.0667775 4.06341 0.000163744 4.2232 0.00571489C4.50855 0.0168172 4.79389 0.0168172 5.07923 0.00571489C5.25615 0.000163744 5.31892 0.0612264 5.31322 0.233312C5.30751 0.838387 5.31322 1.44346 5.31322 2.04854C5.31322 3.69723 5.31322 5.34592 5.31322 6.99461Z" fill="#5D7281"/>
<path id="Vector_6" d="M13.0401 6.99445C13.0401 9.22601 13.0401 11.4631 13.0401 13.6947C13.0401 13.9833 13.0401 13.9833 12.7434 13.9833C12.4695 13.9833 12.2012 13.9778 11.9273 13.9833C11.7903 13.9889 11.7276 13.9334 11.7333 13.8002C11.7333 13.7391 11.7333 13.6725 11.7333 13.6114C11.7333 9.19826 11.7333 4.79064 11.7333 0.377478C11.7333 0.305313 11.7333 0.238699 11.7333 0.166535C11.7333 0.0555115 11.7789 0 11.8988 0C12.2184 0.00555115 12.5436 0 12.8632 0C12.9774 0 13.0344 0.0444092 13.0344 0.160983C13.0344 0.233148 13.0344 0.299762 13.0344 0.371927C13.0401 2.58128 13.0401 4.78509 13.0401 6.99445Z" fill="#5D7281"/>
<path id="Vector_7" d="M15.2146 7.00575C15.2146 9.22066 15.2146 11.43 15.2146 13.6449C15.2146 13.9835 15.2146 13.9835 14.8608 13.9835C14.6097 13.9835 14.3586 13.978 14.1075 13.9835C13.9705 13.9891 13.9077 13.9336 13.9134 13.8004C13.9191 13.7337 13.9134 13.6616 13.9134 13.5894C13.9134 9.1929 13.9134 4.79084 13.9134 0.394329C13.9134 0.322164 13.9191 0.25555 13.9134 0.183385C13.9077 0.0557089 13.9705 0.000197395 14.1075 0.00574854C14.4156 0.0112997 14.7238 0.0112997 15.032 0.00574854C15.1632 0.00574854 15.2146 0.0557089 15.2146 0.177834C15.2146 0.249999 15.2146 0.316613 15.2146 0.388778C15.2146 2.59258 15.2146 4.79639 15.2146 7.00575Z" fill="#5D7281"/>
<path id="Vector_8" d="M19.1977 6.99462C19.1977 4.76305 19.1977 2.52594 19.1977 0.294376C19.1977 0.0112676 19.1977 0.00571645 19.4944 0.00571645C19.7513 0.00571645 20.0081 0.0112676 20.2649 0.00571645C20.4247 0.0001653 20.4874 0.0612279 20.4703 0.211109C20.4646 0.249967 20.4703 0.294376 20.4703 0.338785C20.4703 4.77971 20.4703 9.21507 20.4703 13.656C20.4703 13.9835 20.4703 13.9835 20.1336 13.9835C19.8996 13.9835 19.6599 13.9724 19.426 13.9835C19.2433 13.9946 19.192 13.9225 19.1977 13.7559C19.2034 12.679 19.1977 11.5965 19.1977 10.5196C19.1977 9.34275 19.1977 8.16591 19.1977 6.99462Z" fill="#5D7281"/>
</g>
</g>
<defs>
<clipPath id="clip0_902_2850">
<rect width="22" height="14" fill="white"/>
</clipPath>
</defs>
</svg>
