<svg width="15" height="16" viewBox="0 0 15 16" fill="none" xmlns="http://www.w3.org/2000/svg">
<g id="Group 1467">
<g id="Group 1297">
<path id="Vector (Stroke)" fill-rule="evenodd" clip-rule="evenodd" d="M2.22224 3.11041C1.81314 3.11041 1.48149 3.42537 1.48149 3.81389V13.6626C1.48149 14.0511 1.81314 14.366 2.22224 14.366H12.5927C13.0018 14.366 13.3334 14.0511 13.3334 13.6626V3.81389C13.3334 3.42537 13.0018 3.11041 12.5927 3.11041H2.22224ZM0 3.81389C0 2.64833 0.994931 1.70346 2.22224 1.70346H12.5927C13.82 1.70346 14.8149 2.64833 14.8149 3.81389V13.6626C14.8149 14.8281 13.82 15.773 12.5927 15.773H2.22224C0.994931 15.773 0 14.8281 0 13.6626V3.81389Z" fill="#0B4A89"/>
<path id="Vector" d="M10.3706 1V3.81391" stroke="#0B4A89" stroke-width="2" stroke-linecap="round" stroke-linejoin="round"/>
<path id="Vector_2" d="M4.44458 1V3.81391" stroke="#0B4A89" stroke-width="2" stroke-linecap="round" stroke-linejoin="round"/>
<path id="Vector_3" d="M1 6.69812H13" stroke="#0B4A89" stroke-width="2" stroke-linecap="round" stroke-linejoin="round"/>
</g>
</g>
</svg>
