<svg width="16" height="8" viewBox="0 0 16 8" fill="none" xmlns="http://www.w3.org/2000/svg">
<g id="Group 1289">
<path id="Line 19 (Stroke)" fill-rule="evenodd" clip-rule="evenodd" d="M0 1.06683C0 0.661821 0.255837 0.333496 0.571429 0.333496H15.4286C15.7442 0.333496 16 0.661821 16 1.06683C16 1.47184 15.7442 1.80016 15.4286 1.80016H0.571429C0.255837 1.80016 0 1.47184 0 1.06683Z" fill="#5D7281"/>
<path id="Line 21 (Stroke)" fill-rule="evenodd" clip-rule="evenodd" d="M5.33337 6.93341C5.33337 6.5284 5.63185 6.20007 6.00004 6.20007H10C10.3682 6.20007 10.6667 6.5284 10.6667 6.93341C10.6667 7.33842 10.3682 7.66674 10 7.66674H6.00004C5.63185 7.66674 5.33337 7.33842 5.33337 6.93341Z" fill="#5D7281"/>
<path id="Line 23 (Stroke)" fill-rule="evenodd" clip-rule="evenodd" d="M3.33337 4.00018C3.33337 3.59517 3.63185 3.26685 4.00004 3.26685H12C12.3682 3.26685 12.6667 3.59517 12.6667 4.00018C12.6667 4.40519 12.3682 4.73351 12 4.73351H4.00004C3.63185 4.73351 3.33337 4.40519 3.33337 4.00018Z" fill="#5D7281"/>
</g>
</svg>
