<svg width="14" height="16" viewBox="0 0 14 16" fill="none" xmlns="http://www.w3.org/2000/svg">
<path d="M3.59183 11.3173C3.58619 11.3155 3.58022 11.315 3.57459 11.3132V11.5445C3.57459 11.9523 3.73282 12.3417 4.02495 12.64C4.16873 12.7838 4.33641 12.8943 4.51791 12.9703V13.3987C4.51791 14.5571 5.46068 15.4999 6.61908 15.4999H10.7335C11.8919 15.4999 12.8347 14.5571 12.8347 13.3987V10.7758C13.5128 10.5296 13.9993 9.88605 13.9993 9.12235C13.9993 8.14677 13.2098 7.35157 12.2342 7.35157C11.2585 7.35157 10.4691 8.14677 10.4691 9.12235C10.4691 9.88641 10.956 10.5302 11.6347 10.7761V13.3987C11.6347 13.8956 11.2304 14.2999 10.7335 14.2999H6.61908C6.1222 14.2999 5.71791 13.8956 5.71791 13.3987V12.9673C6.27114 12.7316 6.66035 12.1825 6.66035 11.5445V11.3132C6.64189 11.319 6.62168 11.321 6.60311 11.3265C8.70275 10.6882 10.2356 8.73728 10.2356 6.43447V3.46359C10.2356 2.322 9.38577 1.38333 8.28684 1.22465C8.00043 0.798523 7.39017 0.500061 6.89403 0.500061C6.22218 0.500061 5.67678 1.04546 5.67678 1.71731C5.67678 2.38912 6.22218 2.93456 6.89403 2.93456C7.30188 2.93456 7.78594 2.73179 8.10524 2.42351C8.61954 2.49357 9.01838 2.93082 9.01838 3.46359V6.43447C9.01838 8.58311 7.26738 10.3311 5.1152 10.3311C2.92194 10.3311 1.21798 8.52798 1.21798 6.43447V3.46359C1.21798 2.93082 1.61682 2.49357 2.13113 2.42351C2.45043 2.73179 2.93448 2.93456 3.34237 2.93456C4.01418 2.93456 4.55958 2.38912 4.55958 1.71731C4.55958 1.04546 4.01418 0.500061 3.34237 0.500061C2.84623 0.500061 2.23594 0.798523 1.94952 1.22465C0.850598 1.38333 0.000732422 2.322 0.000732422 3.46359V6.43447C0.000732362 8.79258 1.59064 10.6944 3.59183 11.3173Z" fill="#5D7281"/>
</svg>
