<svg width="13" height="16" viewBox="0 0 13 16" fill="none" xmlns="http://www.w3.org/2000/svg">
<g id="Group 1300">
<path id="Vector (Stroke)" fill-rule="evenodd" clip-rule="evenodd" d="M0.605313 0.605313C0.992888 0.217737 1.51855 0 2.06667 0H6.88889C7.07159 0 7.24681 0.0725791 7.37601 0.201771L12.1982 5.02399C12.3274 5.15318 12.4 5.32841 12.4 5.51111V13.0889C12.4 13.637 12.1823 14.1627 11.7947 14.5502C11.4071 14.9378 10.8814 15.1556 10.3333 15.1556H2.06667C1.51855 15.1556 0.992887 14.9378 0.605313 14.5502C0.217737 14.1627 0 13.637 0 13.0889V2.06667C0 1.51855 0.217737 0.992888 0.605313 0.605313ZM2.06667 1.37778C1.88396 1.37778 1.70874 1.45036 1.57955 1.57955C1.45036 1.70874 1.37778 1.88396 1.37778 2.06667V13.0889C1.37778 13.2716 1.45036 13.4468 1.57955 13.576C1.70874 13.7052 1.88396 13.7778 2.06667 13.7778H10.3333C10.516 13.7778 10.6913 13.7052 10.8205 13.576C10.9496 13.4468 11.0222 13.2716 11.0222 13.0889V5.79646L6.60354 1.37778H2.06667Z" fill="#5D7281"/>
<path id="Vector (Stroke)_2" fill-rule="evenodd" clip-rule="evenodd" d="M6.88884 0C7.2693 0 7.57773 0.308426 7.57773 0.688889V4.82222H11.7111C12.0915 4.82222 12.4 5.13065 12.4 5.51111C12.4 5.89157 12.0915 6.2 11.7111 6.2H6.88884C6.50838 6.2 6.19995 5.89157 6.19995 5.51111V0.688889C6.19995 0.308426 6.50838 0 6.88884 0Z" fill="#5D7281"/>
</g>
</svg>
