<svg width="12" height="15" viewBox="0 0 12 15" fill="none" xmlns="http://www.w3.org/2000/svg">
<g id="Group 982">
<path id="Vector (Stroke)" fill-rule="evenodd" clip-rule="evenodd" d="M0.585786 0.5991C0.960859 0.215502 1.46957 0 2 0H7.33333C7.51014 0 7.67971 0.0718342 7.80474 0.1997L11.8047 4.29061C11.9298 4.41847 12 4.5919 12 4.77273V12.9545C12 13.497 11.7893 14.0173 11.4142 14.4009C11.0391 14.7845 10.5304 15 10 15H2C1.46957 15 0.960859 14.7845 0.585786 14.4009C0.210714 14.0173 0 13.497 0 12.9545V2.04545C0 1.50297 0.210714 0.982697 0.585786 0.5991ZM2 1.36364C1.82319 1.36364 1.65362 1.43547 1.5286 1.56334C1.40357 1.6912 1.33333 1.86462 1.33333 2.04545V12.9545C1.33333 13.1354 1.40357 13.3088 1.5286 13.4367C1.65362 13.5645 1.82319 13.6364 2 13.6364H10C10.1768 13.6364 10.3464 13.5645 10.4714 13.4367C10.5964 13.3088 10.6667 13.1354 10.6667 12.9545V5.05515L7.05719 1.36364H2Z" fill="#5D7281"/>
<path id="Vector (Stroke)_2" fill-rule="evenodd" clip-rule="evenodd" d="M6.625 0C6.97018 0 7.25 0.335786 7.25 0.75V4.5H10.375C10.7202 4.5 11 4.83579 11 5.25C11 5.66421 10.7202 6 10.375 6H6.625C6.27982 6 6 5.66421 6 5.25V0.75C6 0.335786 6.27982 0 6.625 0Z" fill="#5D7281"/>
<path id="Vector (Stroke)_3" fill-rule="evenodd" clip-rule="evenodd" d="M2 8.5C2 8.22386 2.3134 8 2.7 8H8.3C8.6866 8 9 8.22386 9 8.5C9 8.77614 8.6866 9 8.3 9H2.7C2.3134 9 2 8.77614 2 8.5Z" fill="#5D7281"/>
<path id="Vector (Stroke)_4" fill-rule="evenodd" clip-rule="evenodd" d="M2 10.5C2 10.2239 2.3134 10 2.7 10H8.3C8.6866 10 9 10.2239 9 10.5C9 10.7761 8.6866 11 8.3 11H2.7C2.3134 11 2 10.7761 2 10.5Z" fill="#5D7281"/>
<path id="Vector (Stroke)_5" fill-rule="evenodd" clip-rule="evenodd" d="M2 6.5C2 6.22386 2.33579 6 2.75 6H4.25C4.66421 6 5 6.22386 5 6.5C5 6.77614 4.66421 7 4.25 7H2.75C2.33579 7 2 6.77614 2 6.5Z" fill="#5D7281"/>
</g>
</svg>
