<svg width="14" height="15" viewBox="0 0 14 15" fill="none" xmlns="http://www.w3.org/2000/svg">
<g id="Group 1069">
<g id="Group 1071">
<path id="Vector (Stroke)" fill-rule="evenodd" clip-rule="evenodd" d="M13.7071 0.77271C14.0976 1.17473 14.0976 1.82654 13.7071 2.22857L1.70711 14.5819C1.31658 14.984 0.683417 14.984 0.292893 14.5819C-0.0976311 14.1799 -0.0976311 13.5281 0.292893 13.1261L12.2929 0.77271C12.6834 0.370685 13.3166 0.370685 13.7071 0.77271Z" fill="#5D7281"/>
<path id="Vector (Stroke)_2" fill-rule="evenodd" clip-rule="evenodd" d="M0.292893 0.77271C0.683417 0.370685 1.31658 0.370685 1.70711 0.77271L13.7071 13.1261C14.0976 13.5281 14.0976 14.1799 13.7071 14.5819C13.3166 14.984 12.6834 14.984 12.2929 14.5819L0.292893 2.22857C-0.0976311 1.82654 -0.0976311 1.17473 0.292893 0.77271Z" fill="#5D7281"/>
</g>
</g>
</svg>
