<svg width="14" height="14" viewBox="0 0 14 14" fill="none" xmlns="http://www.w3.org/2000/svg">
<path id="Vector" d="M7 0C6.48383 0 5.96762 0.196358 5.57483 0.589151L3.06676 3.09722H3.1425C3.78204 3.09722 4.38099 3.34429 4.83421 3.79752L6.59182 5.55513C6.81844 5.77671 7.18156 5.77671 7.40817 5.55513L9.16579 3.79752C9.61901 3.34429 10.218 3.09722 10.8575 3.09722H10.9332L8.42517 0.589151C8.03238 0.196358 7.51617 0 7 0ZM2.31139 3.8526L0.589189 5.5748C-0.196396 6.36039 -0.196396 7.63957 0.589189 8.42516L2.31139 10.1474H3.1425C3.58061 10.1474 3.99394 9.97654 4.30113 9.66936L6.05874 7.91174C6.57743 7.39305 7.42257 7.39305 7.94126 7.91174L9.69887 9.66936C10.0061 9.97654 10.4194 10.1474 10.8575 10.1474H11.6886L13.4108 8.42516C14.1964 7.63957 14.1964 6.36039 13.4108 5.5748L11.6886 3.8526H10.8575C10.4194 3.8526 10.0061 4.02342 9.69887 4.3306L7.94126 6.08822C7.68444 6.34505 7.34243 6.47673 7 6.47673C6.65757 6.47673 6.31556 6.34505 6.05874 6.08822L4.30113 4.3306C3.99394 4.02342 3.58061 3.8526 3.1425 3.8526H2.31139ZM7 8.2786C6.8527 8.2786 6.70513 8.33404 6.59182 8.44483L4.83421 10.2024C4.38099 10.6557 3.78204 10.9027 3.1425 10.9027H3.06676L5.57483 13.4108C6.36041 14.1964 7.63959 14.1964 8.42517 13.4108L10.9332 10.9027H10.8575C10.218 10.9027 9.61901 10.6557 9.16579 10.2024L7.40817 8.44483C7.29487 8.33404 7.1473 8.2786 7 8.2786Z" fill="#5D7281"/>
</svg>
