<svg width="16" height="14" viewBox="0 0 16 14" fill="none" xmlns="http://www.w3.org/2000/svg">
<g id="Group 991">
<g id="Group 1271">
<g id="Group 986">
<g id="Group 984">
<path id="Vector (Stroke)" fill-rule="evenodd" clip-rule="evenodd" d="M0.976533 8.97623C1.60164 8.35112 2.44947 7.99994 3.3335 7.99994H8.66672C9.55075 7.99994 10.3986 8.35112 11.0237 8.97623C11.6488 9.60134 12 10.4492 12 11.3332V12.6665C12 13.0347 11.7015 13.3332 11.3333 13.3332C10.9651 13.3332 10.6667 13.0347 10.6667 12.6665V11.3332C10.6667 10.8028 10.456 10.2941 10.0809 9.91902C9.70584 9.54395 9.19714 9.33324 8.66672 9.33324H3.3335C2.80308 9.33324 2.29439 9.54395 1.91932 9.91902C1.54426 10.2941 1.33355 10.8028 1.33355 11.3332V12.6665C1.33355 13.0347 1.03508 13.3332 0.666896 13.3332C0.298714 13.3332 0.000244141 13.0347 0.000244141 12.6665V11.3332C0.000244141 10.4492 0.351426 9.60134 0.976533 8.97623Z" fill="#5D7281"/>
<path id="Vector (Stroke)_2" fill-rule="evenodd" clip-rule="evenodd" d="M5.9994 1.33349C4.89485 1.33349 3.99944 2.2289 3.99944 3.33344C3.99944 4.43799 4.89485 5.3334 5.9994 5.3334C7.10394 5.3334 7.99935 4.43799 7.99935 3.33344C7.99935 2.2289 7.10394 1.33349 5.9994 1.33349ZM2.66614 3.33344C2.66614 1.49253 4.15849 0.000183105 5.9994 0.000183105C7.84031 0.000183105 9.33266 1.49253 9.33266 3.33344C9.33266 5.17435 7.84031 6.6667 5.9994 6.6667C4.15849 6.6667 2.66614 5.17435 2.66614 3.33344Z" fill="#5D7281"/>
</g>
</g>
<path id="Vector (Stroke)_3" fill-rule="evenodd" clip-rule="evenodd" d="M15.7803 3.19526C16.0732 3.45561 16.0732 3.87772 15.7803 4.13807L12.7803 6.80474C12.4874 7.06509 12.0126 7.06509 11.7197 6.80474L10.2197 5.4714C9.92678 5.21106 9.92678 4.78895 10.2197 4.5286C10.5126 4.26825 10.9874 4.26825 11.2803 4.5286L12.25 5.39052L14.7197 3.19526C15.0126 2.93491 15.4874 2.93491 15.7803 3.19526Z" fill="#5D7281"/>
</g>
</g>
</svg>
