<svg width="347" height="94" viewBox="0 0 347 94" fill="none" xmlns="http://www.w3.org/2000/svg">
<g clip-path="url(#clip0_1127_9907)">
<path d="M26.3376 0C17.8818 0 11.3726 1.51021 6.82848 4.53064C2.27207 7.55106 0 11.8494 0 17.4255C0 23.0017 2.27207 27.3 6.82234 30.3204C11.3726 33.3408 17.8756 34.851 26.3314 34.851H54.4191C59.258 34.851 62.9363 35.5909 65.4417 37.0705C67.9471 38.5501 69.2059 40.7146 69.2059 43.5638C69.2059 46.413 67.9532 48.5714 65.4417 50.0571C62.9301 51.5367 59.258 52.2766 54.4191 52.2766H0V61.509H54.4252C62.9424 61.509 69.4577 59.9683 73.9834 56.8928C78.503 53.8174 80.7628 49.3723 80.7628 43.5638C80.7628 37.7553 78.503 33.2247 73.9834 30.1492C69.4639 27.0738 62.9424 25.533 54.4252 25.533H26.3376C16.4203 25.533 11.4647 22.8305 11.4647 17.4316C11.4647 12.0328 16.4203 9.2447 26.3376 9.2447H118.909V52.2827H90.5572V61.5151H158.369V52.2827H130.018V9.23247H158.369V0H26.3376Z" fill="#0B4A89"/>
<path d="M200.955 0L161.845 61.509H173.746L181.532 49.0483H240.243L248.03 61.509H260.367L221.256 0H200.955ZM187.046 40.1643L206.648 8.89007H215.134L234.643 40.1643H187.046Z" fill="#0B4A89"/>
<path d="M340.35 5.05034C335.916 1.68141 329.585 0 321.362 0H264.487V61.509H275.602V8.79836H321.362C325.968 8.79836 329.499 9.71549 331.949 11.5436C334.399 13.3718 335.621 16.0009 335.621 19.4249C335.621 22.8488 334.399 25.4046 331.949 27.2633C329.499 29.122 325.968 30.0514 321.362 30.0514H281.159V38.8497H321.362C329.585 38.8497 335.916 37.1683 340.35 33.7994C344.783 30.4305 347 25.643 347 19.4249C347 13.2067 344.783 8.41928 340.35 5.05034Z" fill="#0B4A89"/>
<path d="M2.15543 86.5529C2.27211 87.9041 2.89232 88.9741 4.32925 88.9741C5.76618 88.9741 6.38025 88.2221 6.38025 86.773C6.38025 85.4034 5.80302 84.6697 3.98537 83.7954C1.82997 82.7804 0.896584 81.8327 0.896584 79.8823C0.896584 77.9318 2.13087 76.4889 4.38451 76.4889C7.07415 76.4889 7.79262 78.3965 7.8356 80.0046H6.20217C6.12234 79.332 5.92584 77.8585 4.32925 77.8585C3.09496 77.8585 2.573 78.69 2.573 79.7233C2.573 80.9523 3.11338 81.5515 4.78366 82.3219C7.15398 83.453 8.07509 84.5658 8.07509 86.6324C8.07509 88.699 6.8408 90.3437 4.28626 90.3437C1.49223 90.3437 0.595688 88.54 0.497437 86.5529H2.15543Z" fill="#0B4A89"/>
<path d="M9.8866 78.1581V76.012H11.52V78.1581H9.8866ZM9.8866 80.0412H11.52V90.148H9.8866V80.0412Z" fill="#0B4A89"/>
<path d="M14.7501 87.2132C14.8115 88.2281 15.3457 89.0169 16.4633 89.0169C17.5011 89.0169 17.9985 88.3993 17.9985 87.525C17.9985 86.5528 17.5195 86.0759 16.2054 85.5807C14.05 84.7675 13.4544 83.991 13.4544 82.5847C13.4544 81.1785 14.2895 79.8639 16.4265 79.8639C18.7784 79.8639 19.417 81.4536 19.4354 82.8048H17.8388C17.8204 82.3463 17.7222 81.1785 16.3835 81.1785C15.4869 81.1785 15.0694 81.7348 15.0694 82.4869C15.0694 83.2389 15.4255 83.6364 16.7826 84.1561C18.7784 84.9081 19.6504 85.6418 19.6504 87.3722C19.6504 89.237 18.4713 90.3314 16.3773 90.3314C14.2834 90.3314 13.1658 89.0413 13.1289 87.2132H14.7439H14.7501Z" fill="#0B4A89"/>
<path d="M20.3136 80.0413H21.7321V77.3816H23.3471V80.0413H25.0788V81.4109H23.3471V87.843C23.3471 88.5156 23.5068 88.913 24.2621 88.913C24.5016 88.913 24.7595 88.913 24.9376 88.8763V90.1053C24.5814 90.2459 24.041 90.2826 23.7033 90.2826C22.426 90.2826 21.7321 89.7873 21.7321 88.1365V81.4047H20.3136V80.0352V80.0413Z" fill="#0B4A89"/>
<path d="M27.486 85.4217C27.486 87.2682 27.7869 88.9557 29.3405 88.9557C30.8941 88.9557 31.0537 87.5434 31.0967 87.2315H32.6933C32.6565 87.5067 32.3924 90.3253 29.322 90.3253C26.2517 90.3253 25.8525 87.6045 25.8525 85.0854C25.8525 81.8877 26.9702 79.8639 29.4019 79.8639C32.1161 79.8639 32.7731 82.065 32.7731 84.6085C32.7731 84.8286 32.7547 85.2016 32.7363 85.4217H27.4921H27.486ZM31.1336 84.1744C31.1336 82.5847 30.8142 81.2579 29.3773 81.2579C27.6211 81.2579 27.5412 83.4835 27.5228 84.1744H31.1336Z" fill="#0B4A89"/>
<path d="M34.5846 83.08C34.5846 81.2335 34.5846 80.5181 34.5662 80.0412H36.1443C36.1812 80.3164 36.2057 80.8361 36.2057 81.2702C36.6049 80.4142 37.3418 79.8578 38.4594 79.8578C39.577 79.8578 40.2525 80.3347 40.5534 81.3435C40.9341 80.5487 41.6894 79.8578 43.0281 79.8578C44.3668 79.8578 45.5028 80.4937 45.5028 82.8171V90.1419H43.8878V83.0922C43.8878 82.1017 43.5869 81.2885 42.5307 81.2885C41.2964 81.2885 40.8727 82.3585 40.8727 83.6914V90.1419H39.2577V83.135C39.2577 81.9427 38.8585 81.3069 37.9006 81.3069C36.7461 81.3069 36.2242 82.3218 36.2242 83.8076V90.1419H34.5907V83.0739L34.5846 83.08Z" fill="#0B4A89"/>
<path d="M53.7191 88.2832C53.7191 88.9007 53.756 89.8117 53.799 90.148H52.3068C52.2454 89.9279 52.2085 89.4143 52.2085 89.0352C51.8278 89.8301 51.0909 90.3253 49.8382 90.3253C47.8855 90.3253 47.167 88.7968 47.167 87.3844C47.167 85.4951 48.4627 84.1255 51.0971 84.1255C51.5576 84.1255 51.8339 84.1255 52.1164 84.1622V82.8538C52.1164 82.12 51.9752 81.1662 50.6795 81.1662C49.2855 81.1662 49.1873 82.1567 49.1259 82.8354H47.5723C47.6091 81.368 48.2907 79.8578 50.7409 79.8578C52.7551 79.8578 53.7314 80.8299 53.7314 82.6948V88.2709L53.7191 88.2832ZM52.1471 85.4217C51.9076 85.385 51.6313 85.385 51.1892 85.385C49.4759 85.385 48.7943 86.1982 48.7943 87.2682C48.7943 88.1242 49.2303 88.9557 50.2926 88.9557C51.705 88.9557 52.1471 87.9408 52.1471 85.9353V85.4217Z" fill="#0B4A89"/>
<path d="M61.6529 76.6661V90.148H59.9949V76.6661H61.6529Z" fill="#0B4A89"/>
<path d="M63.9618 83.1778C63.9618 81.0928 63.9434 80.5181 63.9434 80.0412H65.5215C65.5399 80.2797 65.5829 80.6954 65.5829 81.313C65.9023 80.5793 66.6023 79.8639 67.9533 79.8639C69.4455 79.8639 70.5631 80.7382 70.5631 82.9393V90.148H68.9051V83.2817C68.9051 82.0895 68.5489 81.2946 67.4313 81.2946C66.154 81.2946 65.5952 82.1078 65.5952 84.0949V90.148H63.9618V83.1778Z" fill="#0B4A89"/>
<path d="M71.6561 80.0413H73.0746V77.3816H74.6896V80.0413H76.4213V81.4109H74.6896V87.843C74.6896 88.5156 74.8493 88.913 75.6046 88.913C75.8441 88.913 76.102 88.913 76.2801 88.8763V90.1053C75.9239 90.2459 75.3835 90.2826 75.0458 90.2826C73.7685 90.2826 73.0746 89.7873 73.0746 88.1365V81.4047H71.6561V80.0352V80.0413Z" fill="#0B4A89"/>
<path d="M78.8346 85.4217C78.8346 87.2682 79.1355 88.9557 80.6891 88.9557C82.2427 88.9557 82.4024 87.5434 82.4453 87.2315H84.0419C84.0051 87.5067 83.741 90.3253 80.6707 90.3253C77.6003 90.3253 77.2012 87.6045 77.2012 85.0854C77.2012 81.8877 78.3188 79.8639 80.7505 79.8639C83.4647 79.8639 84.1218 82.065 84.1218 84.6085C84.1218 84.8286 84.1033 85.2016 84.0849 85.4217H78.8407H78.8346ZM82.4822 84.1744C82.4822 82.5847 82.1629 81.2579 80.726 81.2579C78.9697 81.2579 78.8899 83.4835 78.8714 84.1744H82.4822Z" fill="#0B4A89"/>
<path d="M92.5654 89.4754C92.5654 92.1779 91.8899 94 88.9362 94C86.265 94 85.6877 92.3124 85.6263 91.1996H87.2843C87.3212 91.6949 87.6036 92.6304 88.9976 92.6304C90.6126 92.6304 90.9503 91.4564 90.9503 89.4754V88.6439C90.5696 89.6344 89.7345 90.1113 88.6169 90.1113C86.5413 90.1113 85.5465 88.3626 85.5465 85.2077C85.5465 81.6125 86.8852 79.87 88.8379 79.87C90.2135 79.87 90.7723 80.5426 90.9503 81.1418C90.9503 80.726 90.9872 80.2674 91.0302 80.0473H92.5838C92.5654 80.5854 92.5654 81.6187 92.5654 82.9882V89.4815V89.4754ZM89.0774 88.6989C90.5696 88.6989 90.9688 87.2315 90.9688 84.9081C90.9688 82.5847 90.6924 81.2946 89.1941 81.2946C87.9168 81.2946 87.2414 82.6275 87.2414 85.1833C87.2414 87.5678 87.88 88.6989 89.0774 88.6989Z" fill="#0B4A89"/>
<path d="M94.9357 83.4774C94.9357 81.8693 94.9357 80.7565 94.9172 80.0412H96.4708C96.4893 80.2796 96.5322 80.7382 96.5322 81.8082C96.9498 80.6159 97.9078 79.9005 99.2035 79.8822V81.6859C97.4718 81.7287 96.5691 82.7009 96.5691 84.5657V90.1419H94.9357V83.4713V83.4774Z" fill="#0B4A89"/>
<path d="M106.364 88.2832C106.364 88.9007 106.4 89.8117 106.443 90.148H104.951C104.89 89.9279 104.853 89.4143 104.853 89.0352C104.472 89.8301 103.735 90.3253 102.483 90.3253C100.53 90.3253 99.8114 88.7968 99.8114 87.3844C99.8114 85.4951 101.107 84.1255 103.741 84.1255C104.202 84.1255 104.478 84.1255 104.761 84.1622V82.8538C104.761 82.12 104.62 81.1662 103.324 81.1662C101.93 81.1662 101.832 82.1567 101.77 82.8354H100.217C100.254 81.368 100.935 79.8578 103.385 79.8578C105.399 79.8578 106.376 80.8299 106.376 82.6948V88.2709L106.364 88.2832ZM104.785 85.4217C104.546 85.385 104.27 85.385 103.827 85.385C102.114 85.385 101.433 86.1982 101.433 87.2682C101.433 88.1242 101.869 88.9557 102.931 88.9557C104.343 88.9557 104.785 87.9408 104.785 85.9353V85.4217Z" fill="#0B4A89"/>
<path d="M115.188 76.012V87.5067C115.188 88.54 115.188 89.5488 115.206 90.148H113.628C113.591 89.8912 113.567 89.2554 113.567 88.8396C113.247 89.6956 112.609 90.3253 111.196 90.3253C109.084 90.3253 108.206 88.5217 108.206 84.9876C108.206 81.7899 109.36 79.8639 111.534 79.8639C112.811 79.8639 113.327 80.402 113.548 80.8789V76.0181H115.182L115.188 76.012ZM111.7 88.9007C113.192 88.9007 113.597 87.629 113.597 84.951C113.597 82.1323 113.217 81.3008 111.804 81.3008C110.65 81.3008 109.888 82.2913 109.888 85.0121C109.888 87.7329 110.508 88.9007 111.7 88.9007Z" fill="#0B4A89"/>
<path d="M124.141 84.9876C124.141 88.5583 122.907 90.3253 120.573 90.3253C118.24 90.3253 117.024 88.6195 117.024 85.0243C117.024 81.4291 118.418 79.8639 120.653 79.8639C122.888 79.8639 124.141 81.5881 124.141 84.9876ZM118.694 85.0243C118.694 87.6656 119.314 88.9374 120.592 88.9374C121.869 88.9374 122.464 87.6473 122.464 85.0243C122.464 82.4013 121.869 81.2702 120.592 81.2702C119.314 81.2702 118.694 82.4013 118.694 85.0243Z" fill="#0B4A89"/>
<path d="M136.257 76.012V87.5067C136.257 88.54 136.257 89.5488 136.275 90.148H134.697C134.66 89.8912 134.635 89.2554 134.635 88.8396C134.316 89.6956 133.677 90.3253 132.265 90.3253C130.153 90.3253 129.275 88.5217 129.275 84.9876C129.275 81.7899 130.429 79.8639 132.603 79.8639C133.88 79.8639 134.396 80.402 134.617 80.8789V76.0181H136.25L136.257 76.012ZM132.769 88.9007C134.261 88.9007 134.666 87.629 134.666 84.951C134.666 82.1323 134.285 81.3008 132.873 81.3008C131.719 81.3008 130.957 82.2913 130.957 85.0121C130.957 87.7329 131.577 88.9007 132.769 88.9007Z" fill="#0B4A89"/>
<path d="M139.726 85.4217C139.726 87.2682 140.027 88.9557 141.581 88.9557C143.134 88.9557 143.294 87.5434 143.337 87.2315H144.933C144.897 87.5067 144.633 90.3253 141.562 90.3253C138.492 90.3253 138.093 87.6045 138.093 85.0854C138.093 81.8877 139.21 79.8639 141.642 79.8639C144.356 79.8639 145.013 82.065 145.013 84.6085C145.013 84.8286 144.995 85.2016 144.976 85.4217H139.732H139.726ZM143.374 84.1744C143.374 82.5847 143.054 81.2579 141.617 81.2579C139.861 81.2579 139.781 83.4835 139.763 84.1744H143.374Z" fill="#0B4A89"/>
<path d="M152.204 86.0392L151.265 90.148H149.613L152.861 76.6661H155.017L158.345 90.148H156.57L155.631 86.0392H152.204ZM155.311 84.5718C154.574 81.4169 154.095 79.3503 153.893 78.2375H153.856C153.678 79.4114 153.137 81.7715 152.517 84.5718H155.311Z" fill="#0B4A89"/>
<path d="M166.457 89.4754C166.457 92.1779 165.781 94 162.827 94C160.156 94 159.579 92.3124 159.518 91.1996H161.176C161.212 91.6949 161.495 92.6304 162.889 92.6304C164.504 92.6304 164.842 91.4564 164.842 89.4754V88.6439C164.461 89.6344 163.626 90.1113 162.508 90.1113C160.433 90.1113 159.438 88.3626 159.438 85.2077C159.438 81.6125 160.776 79.87 162.729 79.87C164.105 79.87 164.663 80.5426 164.842 81.1418C164.842 80.726 164.878 80.2674 164.921 80.0473H166.475C166.457 80.5854 166.457 81.6187 166.457 82.9882V89.4815V89.4754ZM162.969 88.6989C164.461 88.6989 164.86 87.2315 164.86 84.9081C164.86 82.5847 164.584 81.2946 163.085 81.2946C161.808 81.2946 161.133 82.6275 161.133 85.1833C161.133 87.5678 161.771 88.6989 162.969 88.6989Z" fill="#0B4A89"/>
<path d="M169.963 85.4217C169.963 87.2682 170.264 88.9557 171.818 88.9557C173.371 88.9557 173.531 87.5434 173.574 87.2315H175.17C175.134 87.5067 174.869 90.3253 171.799 90.3253C168.729 90.3253 168.33 87.6045 168.33 85.0854C168.33 81.8877 169.447 79.8639 171.879 79.8639C174.593 79.8639 175.25 82.065 175.25 84.6085C175.25 84.8286 175.232 85.2016 175.213 85.4217H169.969H169.963ZM173.611 84.1744C173.611 82.5847 173.291 81.2579 171.854 81.2579C170.098 81.2579 170.018 83.4835 170 84.1744H173.611Z" fill="#0B4A89"/>
<path d="M177.056 83.1778C177.056 81.0928 177.037 80.5181 177.037 80.0412H178.615C178.634 80.2797 178.677 80.6954 178.677 81.313C178.996 80.5793 179.696 79.8639 181.047 79.8639C182.539 79.8639 183.657 80.7382 183.657 82.9393V90.148H181.999V83.2817C181.999 82.0895 181.643 81.2946 180.525 81.2946C179.248 81.2946 178.689 82.1078 178.689 84.0949V90.148H177.056V83.1778Z" fill="#0B4A89"/>
<path d="M192.469 76.012V87.5067C192.469 88.54 192.469 89.5488 192.487 90.148H190.909C190.866 89.8912 190.848 89.2554 190.848 88.8396C190.528 89.6956 189.89 90.3253 188.477 90.3253C186.365 90.3253 185.487 88.5217 185.487 84.9876C185.487 81.7899 186.641 79.8639 188.815 79.8639C190.092 79.8639 190.608 80.402 190.829 80.8789V76.0181H192.463L192.469 76.012ZM188.975 88.9007C190.467 88.9007 190.866 87.629 190.866 84.951C190.866 82.1323 190.485 81.3008 189.073 81.3008C187.918 81.3008 187.157 82.2913 187.157 85.0121C187.157 87.7329 187.777 88.9007 188.968 88.9007H188.975Z" fill="#0B4A89"/>
<path d="M200.74 88.2832C200.74 88.9007 200.777 89.8117 200.82 90.148H199.328C199.266 89.9279 199.23 89.4143 199.23 89.0352C198.849 89.8301 198.112 90.3253 196.859 90.3253C194.907 90.3253 194.188 88.7968 194.188 87.3844C194.188 85.4951 195.484 84.1255 198.118 84.1255C198.579 84.1255 198.855 84.1255 199.138 84.1622V82.8538C199.138 82.12 198.996 81.1662 197.701 81.1662C196.307 81.1662 196.208 82.1567 196.147 82.8354H194.593C194.63 81.368 195.312 79.8578 197.762 79.8578C199.776 79.8578 200.753 80.8299 200.753 82.6948V88.2709L200.74 88.2832ZM199.162 85.4217C198.923 85.385 198.646 85.385 198.204 85.385C196.491 85.385 195.809 86.1982 195.809 87.2682C195.809 88.1242 196.245 88.9557 197.308 88.9557C198.72 88.9557 199.162 87.9408 199.162 85.9353V85.4217Z" fill="#0B4A89"/>
<path d="M203.086 83.08C203.086 81.2335 203.086 80.5181 203.068 80.0412H204.646C204.683 80.3164 204.707 80.8361 204.707 81.2702C205.106 80.4142 205.843 79.8578 206.961 79.8578C208.078 79.8578 208.754 80.3347 209.055 81.3435C209.436 80.5487 210.191 79.8578 211.53 79.8578C212.868 79.8578 214.004 80.4937 214.004 82.8171V90.1419H212.389V83.0922C212.389 82.1017 212.088 81.2885 211.032 81.2885C209.798 81.2885 209.374 82.3585 209.374 83.6914V90.1419H207.759V83.135C207.759 81.9427 207.36 81.3069 206.402 81.3069C205.248 81.3069 204.726 82.3218 204.726 83.8076V90.1419H203.092V83.0739L203.086 83.08Z" fill="#0B4A89"/>
<path d="M217.48 85.4217C217.48 87.2682 217.781 88.9557 219.334 88.9557C220.888 88.9557 221.048 87.5434 221.091 87.2315H222.687C222.65 87.5067 222.386 90.3253 219.316 90.3253C216.246 90.3253 215.846 87.6045 215.846 85.0854C215.846 81.8877 216.964 79.8639 219.396 79.8639C222.11 79.8639 222.767 82.065 222.767 84.6085C222.767 84.8286 222.749 85.2016 222.73 85.4217H217.486H217.48ZM221.127 84.1744C221.127 82.5847 220.808 81.2579 219.371 81.2579C217.615 81.2579 217.535 83.4835 217.517 84.1744H221.127Z" fill="#0B4A89"/>
<path d="M224.579 83.1778C224.579 81.0928 224.56 80.5181 224.56 80.0412H226.138C226.157 80.2797 226.2 80.6954 226.2 81.313C226.519 80.5793 227.219 79.8639 228.57 79.8639C230.062 79.8639 231.18 80.7382 231.18 82.9393V90.148H229.522V83.2817C229.522 82.0895 229.166 81.2946 228.048 81.2946C226.771 81.2946 226.212 82.1078 226.212 84.0949V90.148H224.579V83.1778Z" fill="#0B4A89"/>
<path d="M232.267 80.0413H233.685V77.3816H235.3V80.0413H237.032V81.4109H235.3V87.843C235.3 88.5156 235.46 88.913 236.215 88.913C236.455 88.913 236.713 88.913 236.891 88.8763V90.1053C236.535 90.2459 235.994 90.2826 235.656 90.2826C234.379 90.2826 233.685 89.7873 233.685 88.1365V81.4047H232.267V80.0352V80.0413Z" fill="#0B4A89"/>
<path d="M244.929 84.9876C244.929 88.5583 243.695 90.3253 241.361 90.3253C239.028 90.3253 237.812 88.6195 237.812 85.0243C237.812 81.4291 239.206 79.8639 241.441 79.8639C243.676 79.8639 244.929 81.5881 244.929 84.9876ZM239.488 85.0243C239.488 87.6656 240.108 88.9374 241.386 88.9374C242.663 88.9374 243.259 87.6473 243.259 85.0243C243.259 82.4013 242.663 81.2702 241.386 81.2702C240.108 81.2702 239.488 82.4013 239.488 85.0243Z" fill="#0B4A89"/>
<path d="M251.702 85.4217C251.702 87.2682 252.003 88.9557 253.557 88.9557C255.11 88.9557 255.27 87.5434 255.313 87.2315H256.909C256.873 87.5067 256.609 90.3253 253.538 90.3253C250.468 90.3253 250.069 87.6045 250.069 85.0854C250.069 81.8877 251.186 79.8639 253.618 79.8639C256.332 79.8639 256.989 82.065 256.989 84.6085C256.989 84.8286 256.971 85.2016 256.952 85.4217H251.708H251.702ZM255.35 84.1744C255.35 82.5847 255.03 81.2579 253.593 81.2579C251.837 81.2579 251.757 83.4835 251.739 84.1744H255.35Z" fill="#0B4A89"/>
<path d="M262.725 76.6661H266.311C268.466 76.6661 269.959 77.999 269.959 80.4753C269.959 82.9516 268.601 84.3884 266.108 84.3884H264.377V90.148H262.719V76.6661H262.725ZM264.383 83.0005H265.936C267.49 83.0005 268.288 82.1873 268.288 80.457C268.288 78.9895 267.533 78.0541 266.096 78.0541H264.383V83.0005Z" fill="#0B4A89"/>
<path d="M277.395 88.2832C277.395 88.9007 277.432 89.8117 277.475 90.148H275.983C275.921 89.9279 275.884 89.4143 275.884 89.0352C275.504 89.8301 274.767 90.3253 273.514 90.3253C271.561 90.3253 270.843 88.7968 270.843 87.3844C270.843 85.4951 272.138 84.1255 274.773 84.1255C275.233 84.1255 275.51 84.1255 275.792 84.1622V82.8538C275.792 82.12 275.651 81.1662 274.355 81.1662C272.961 81.1662 272.863 82.1567 272.802 82.8354H271.248C271.285 81.368 271.967 79.8578 274.417 79.8578C276.431 79.8578 277.407 80.8299 277.407 82.6948V88.2709L277.395 88.2832ZM275.823 85.4217C275.583 85.385 275.307 85.385 274.865 85.385C273.152 85.385 272.47 86.1982 272.47 87.2682C272.47 88.1242 272.906 88.9557 273.968 88.9557C275.381 88.9557 275.823 87.9408 275.823 85.9353V85.4217Z" fill="#0B4A89"/>
<path d="M286.25 89.4754C286.25 92.1779 285.574 94 282.621 94C279.949 94 279.372 92.3124 279.311 91.1996H280.969C281.006 91.6949 281.288 92.6304 282.682 92.6304C284.297 92.6304 284.635 91.4564 284.635 89.4754V88.6439C284.254 89.6344 283.419 90.1113 282.301 90.1113C280.226 90.1113 279.231 88.3626 279.231 85.2077C279.231 81.6125 280.57 79.87 282.522 79.87C283.898 79.87 284.457 80.5426 284.635 81.1418C284.635 80.726 284.678 80.2674 284.715 80.0473H286.268C286.25 80.5854 286.25 81.6187 286.25 82.9882V89.4815V89.4754ZM282.756 88.6989C284.248 88.6989 284.647 87.2315 284.647 84.9081C284.647 82.5847 284.371 81.2946 282.872 81.2946C281.595 81.2946 280.92 82.6275 280.92 85.1833C280.92 87.5678 281.558 88.6989 282.756 88.6989Z" fill="#0B4A89"/>
<path d="M294.521 88.2832C294.521 88.9007 294.558 89.8117 294.601 90.148H293.109C293.048 89.9279 293.011 89.4143 293.011 89.0352C292.63 89.8301 291.893 90.3253 290.64 90.3253C288.688 90.3253 287.969 88.7968 287.969 87.3844C287.969 85.4951 289.265 84.1255 291.899 84.1255C292.36 84.1255 292.636 84.1255 292.919 84.1622V82.8538C292.919 82.12 292.777 81.1662 291.482 81.1662C290.088 81.1662 289.99 82.1567 289.928 82.8354H288.375C288.411 81.368 289.093 79.8578 291.543 79.8578C293.557 79.8578 294.534 80.8299 294.534 82.6948V88.2709L294.521 88.2832ZM292.943 85.4217C292.704 85.385 292.427 85.385 291.985 85.385C290.272 85.385 289.59 86.1982 289.59 87.2682C289.59 88.1242 290.026 88.9557 291.089 88.9557C292.501 88.9557 292.943 87.9408 292.943 85.9353V85.4217Z" fill="#0B4A89"/>
<path d="M296.867 83.08C296.867 81.2335 296.867 80.5181 296.849 80.0412H298.427C298.464 80.3164 298.488 80.8361 298.488 81.2702C298.887 80.4142 299.624 79.8578 300.742 79.8578C301.86 79.8578 302.535 80.3347 302.836 81.3435C303.217 80.5487 303.972 79.8578 305.311 79.8578C306.649 79.8578 307.785 80.4937 307.785 82.8171V90.1419H306.17V83.0922C306.17 82.1017 305.869 81.2885 304.813 81.2885C303.579 81.2885 303.155 82.3585 303.155 83.6914V90.1419H301.54V83.135C301.54 81.9427 301.141 81.3069 300.183 81.3069C299.029 81.3069 298.507 82.3218 298.507 83.8076V90.1419H296.873V83.0739L296.867 83.08Z" fill="#0B4A89"/>
<path d="M311.261 85.4217C311.261 87.2682 311.562 88.9557 313.115 88.9557C314.669 88.9557 314.829 87.5434 314.872 87.2315H316.468C316.431 87.5067 316.167 90.3253 313.097 90.3253C310.027 90.3253 309.628 87.6045 309.628 85.0854C309.628 81.8877 310.745 79.8639 313.177 79.8639C315.891 79.8639 316.548 82.065 316.548 84.6085C316.548 84.8286 316.53 85.2016 316.511 85.4217H311.267H311.261ZM314.909 84.1744C314.909 82.5847 314.589 81.2579 313.152 81.2579C311.396 81.2579 311.316 83.4835 311.298 84.1744H314.909Z" fill="#0B4A89"/>
<path d="M318.354 83.1778C318.354 81.0928 318.335 80.5181 318.335 80.0412H319.913C319.932 80.2797 319.975 80.6954 319.975 81.313C320.294 80.5793 320.994 79.8639 322.345 79.8639C323.837 79.8639 324.955 80.7382 324.955 82.9393V90.148H323.297V83.2817C323.297 82.0895 322.941 81.2946 321.823 81.2946C320.546 81.2946 319.987 82.1078 319.987 84.0949V90.148H318.354V83.1778Z" fill="#0B4A89"/>
<path d="M326.048 80.0413H327.466V77.3816H329.081V80.0413H330.813V81.4109H329.081V87.843C329.081 88.5156 329.241 88.913 329.996 88.913C330.236 88.913 330.494 88.913 330.672 88.8763V90.1053C330.316 90.2459 329.775 90.2826 329.438 90.2826C328.16 90.2826 327.466 89.7873 327.466 88.1365V81.4047H326.048V80.0352V80.0413Z" fill="#0B4A89"/>
<path d="M338.71 84.9876C338.71 88.5583 337.476 90.3253 335.142 90.3253C332.809 90.3253 331.593 88.6195 331.593 85.0243C331.593 81.4291 332.987 79.8639 335.222 79.8639C337.457 79.8639 338.71 81.5881 338.71 84.9876ZM333.263 85.0243C333.263 87.6656 333.884 88.9374 335.161 88.9374C336.438 88.9374 337.034 87.6473 337.034 85.0243C337.034 82.4013 336.438 81.2702 335.161 81.2702C333.884 81.2702 333.263 82.4013 333.263 85.0243Z" fill="#0B4A89"/>
<path d="M341.535 87.2132C341.596 88.2281 342.13 89.0169 343.248 89.0169C344.286 89.0169 344.783 88.3993 344.783 87.525C344.783 86.5528 344.304 86.0759 342.99 85.5807C340.835 84.7675 340.239 83.991 340.239 82.5847C340.239 81.1785 341.074 79.8639 343.211 79.8639C345.563 79.8639 346.202 81.4536 346.22 82.8048H344.624C344.605 82.3463 344.507 81.1785 343.168 81.1785C342.272 81.1785 341.854 81.7348 341.854 82.4869C341.854 83.2389 342.21 83.6364 343.567 84.1561C345.563 84.9081 346.435 85.6418 346.435 87.3722C346.435 89.237 345.256 90.3314 343.162 90.3314C341.068 90.3314 339.95 89.0413 339.914 87.2132H341.529H341.535Z" fill="#0B4A89"/>
</g>
<defs>
<clipPath id="clip0_1127_9907">
<rect width="347" height="94" fill="white"/>
</clipPath>
</defs>
</svg>
